<svg width="257" height="50" viewBox="0 0 257 50" fill="none" xmlns="http://www.w3.org/2000/svg">
<path fill-rule="evenodd" clip-rule="evenodd" d="M101.242 39.6663L85.7312 0.36469H72.1869L56.678 39.6677H51.8177V49.4445H73.6443V39.6677H68.1575L70.6349 33.1211H87.2846L89.762 39.6677H83.8639V49.4445H105.689V39.6677L101.242 39.6663ZM74.168 23.7776L78.9598 11.1107L83.7515 23.7776H74.168ZM236.413 29.6017L251.529 8.90752H256.501V0H233.745V8.90752H238.94L230.449 20.5296L221.958 8.90752H227.23V0H204.475V8.90752H209.37L224.485 29.6017L224.488 29.5989V39.5786H218.876V49.3526H241.567V39.5786H236.41V29.5989L236.413 29.6017ZM192.738 33.7778V39.5334H182.126V8.98292H187.396V0.0754065H164.854V8.98292H170.207V39.5334H164.831V49.3074H203.344V33.7778H192.738ZM143.51 33.8779V39.6348H132.901V9.08438H138.167V0.176859H115.628V9.08438H120.979V39.6348H115.602V49.4088H154.116V33.8779H143.51ZM35.6013 22.9262C39.9803 20.7134 42.7086 17.3653 42.7086 12.5256C42.7086 6.20661 37.9814 0.216617 26.4579 0.216617H5.81175V0.253635H0.00411276V8.94454H5.81175V39.5772H0V49.3512H14.8906V49.306H29.0464C38.7683 49.306 44.8296 42.2658 44.8296 34.9103C44.831 28.897 39.0343 23.8365 35.6013 22.9262ZM17.7095 8.99801H23.938C28.2773 8.99801 31.8927 9.99611 31.761 14.1805C31.6486 17.7054 28.2773 19.5069 23.938 19.2902H17.7095V8.99801ZM24.4288 39.5594H17.7095V28.0716H26.0384C30.2378 28.0716 32.8839 30.013 32.8839 33.6119C32.8825 40.042 26.9351 39.5978 24.4288 39.5594Z" fill="black"/>
</svg>
