<svg width="248" height="175" viewBox="0 0 248 175" fill="none" xmlns="http://www.w3.org/2000/svg">
<path fill-rule="evenodd" clip-rule="evenodd" d="M124 0C192.47 0 248 39.0342 248 87.1672C248 135.3 192.47 174.333 124 174.333C55.5286 174.333 0 135.3 0 87.1672C0 39.0342 55.5286 0 124 0Z" fill="#71A077"/>
<path fill-rule="evenodd" clip-rule="evenodd" d="M124 11.9211C186.706 11.9211 237.558 45.617 237.558 87.1672C237.558 128.717 186.706 162.413 124 162.413C61.2944 162.413 10.4436 128.717 10.4436 87.1672C10.4436 45.617 61.2944 11.9211 124 11.9211Z" fill="#FFF8B0"/>
<path fill-rule="evenodd" clip-rule="evenodd" d="M51.8541 63.771C61.1844 63.771 69.3844 68.7677 73.9155 76.2212C76.4766 82.6869 67.1421 86.8003 63.3392 81.5101C62.0456 79.6644 60.3266 78.1574 58.3275 77.1164C56.3284 76.0755 54.108 75.5313 51.8541 75.5298C44.1213 75.5298 37.815 81.836 37.815 89.5703C37.815 97.3018 44.1213 103.609 51.8541 103.609C54.0287 103.608 56.1733 103.101 58.1184 102.129C60.0636 101.157 61.7562 99.7458 63.0626 98.0074C68.5857 91.4711 77.0143 97.1085 73.4089 103.715C59.7987 124.364 26.0576 115.332 26.0576 89.5703C26.0576 75.359 37.6457 63.771 51.8541 63.771ZM128.452 65.1906H129.455C132.374 65.1906 134.764 69.1586 134.764 74.0086V106.593C134.764 111.443 132.375 115.409 129.455 115.409H128.452C125.534 115.409 123.143 111.441 123.143 106.593V74.0072C123.143 69.1586 125.534 65.1906 128.452 65.1906ZM166.544 65.1906H167.55C170.468 65.1906 172.856 69.1586 172.856 74.0086V106.593C172.856 111.443 170.469 115.409 167.55 115.409H166.544C163.625 115.409 161.235 111.441 161.235 106.593V74.0072C161.236 69.1586 163.625 65.1906 166.544 65.1906ZM126.788 46.3268C129.694 45.6156 132.982 48.3292 134.104 52.3692C135.231 56.4092 133.779 60.2855 130.874 60.9982C127.968 61.7108 124.68 58.9972 123.556 54.9558C122.429 50.9158 123.881 47.0394 126.788 46.3268ZM151.929 120.396C151.987 120.302 152.576 118.567 152.593 118.481C153.44 115.746 153.996 112.68 154.253 109.272C154.418 108.426 154.507 107.527 154.507 106.594V41.0394C154.507 36.1894 152.118 32.2228 149.198 32.2228H148.195C145.277 32.2228 142.886 36.1908 142.886 41.0394V104.865H142.727C142.594 110.951 141.77 115.447 139.72 118.491C139.714 118.502 138.072 120.396 138.063 120.406C135.86 122.345 132.688 123.361 128.35 123.457C124.244 123.481 121.231 122.308 119.218 120.395C119.119 120.368 117.584 118.457 117.656 118.387C115.917 115.564 115.327 111.795 115.413 107.679C115.442 107.321 115.454 106.958 115.454 106.59V106.518C115.468 106.224 115.487 105.928 115.508 105.63L115.454 105.629V80.3332C115.454 66.9037 100.402 58.2592 89.9626 68.985V41.0394C89.9626 36.1894 87.5736 32.2228 84.6554 32.2228H83.6507C80.7325 32.2228 78.3435 36.1908 78.3435 41.0394V106.591C78.3435 111.441 80.7311 115.408 83.6507 115.408H84.6554C87.5736 115.408 89.9626 111.44 89.9626 106.591V80.3276C90.0967 74.5942 103.525 73.6304 103.824 81.4466L103.837 81.4522V105.064C103.83 105.062 103.817 105.053 103.817 105.057C103.343 110.065 103.742 114.516 104.82 118.375C104.819 118.454 105.379 120.187 105.482 120.444C109.134 130.488 117.747 135.973 127.584 136.109C139.628 135.66 148.02 130.589 151.929 120.396ZM165.123 46.3268C168.028 45.6156 171.313 48.3292 172.441 52.3692C173.565 56.4092 172.113 60.2855 169.208 60.9982C166.302 61.7108 163.014 58.9972 161.89 54.9558C160.765 50.9158 162.217 47.0394 165.123 46.3268ZM213.069 69.0246C220.301 72.2927 215.048 82.6432 209.811 79.7575C204.892 77.3854 194.391 77.0693 191.985 78.4155C189.215 79.6206 188.451 84.9235 192.367 84.9334C210.139 84.8939 218.695 88.7688 218.817 100.073C218.618 112.008 206.638 118.267 183.55 112.34C177.325 110.064 180.748 100.162 188.342 102.565C193.218 104.51 199.366 105.218 204.634 103.906C209.769 102.091 208.473 96.8587 203.868 97.1974C187.001 97.5798 177.525 92.3418 178.566 81.4804C180.206 66.9714 192.881 63.2094 213.069 69.0246ZM221.704 106.83C224.035 106.83 225.937 108.732 225.937 111.063C225.937 113.394 224.035 115.296 221.704 115.296C219.373 115.296 217.471 113.394 217.471 111.063C217.471 108.732 219.373 106.83 221.704 106.83ZM219.83 113.493V108.632H221.985C222.418 108.632 222.748 108.675 222.971 108.763C223.197 108.85 223.379 109.004 223.514 109.224C223.649 109.445 223.719 109.699 223.716 109.958C223.716 110.304 223.606 110.593 223.38 110.83C223.157 111.066 222.813 111.217 222.347 111.282C222.518 111.364 222.648 111.443 222.736 111.524C222.923 111.695 223.102 111.91 223.27 112.171L224.117 113.494H223.307L222.665 112.483C222.477 112.19 222.321 111.968 222.199 111.812C222.078 111.657 221.968 111.548 221.872 111.488C221.782 111.429 221.684 111.385 221.58 111.358C221.461 111.339 221.341 111.331 221.221 111.335H220.475V113.493H219.83ZM220.472 110.778H221.855C222.147 110.778 222.378 110.747 222.544 110.686C222.699 110.634 222.832 110.531 222.922 110.394C223.008 110.265 223.053 110.112 223.052 109.957C223.054 109.85 223.033 109.743 222.99 109.645C222.946 109.548 222.882 109.461 222.8 109.391C222.635 109.244 222.37 109.169 222.009 109.169H220.471V110.778H220.472ZM221.704 107.48C222.653 107.482 223.563 107.86 224.235 108.531C224.906 109.202 225.285 110.112 225.287 111.062C225.287 113.034 223.677 114.643 221.704 114.643C219.731 114.643 218.124 113.034 218.124 111.062C218.126 110.113 218.504 109.203 219.174 108.532C219.845 107.86 220.755 107.482 221.704 107.48Z" fill="#71A077"/>
<path fill-rule="evenodd" clip-rule="evenodd" d="M181.331 51.0329C181.874 54.0329 179.641 61.2507 176.293 62.7154C174.173 63.6962 175.954 66.5875 179.08 65.8227C186.904 63.6708 192.011 58.2944 195.264 50.7111C194.299 50.2313 193.298 49.3649 193.228 48.4604C192.938 47.1664 192.01 46.3818 190.657 48.2459C189.396 49.5738 187.688 49.5004 186.799 48.1387C185.997 46.5822 185.153 46.7812 184.546 48.4604C184.103 49.7078 182.397 50.8748 181.331 51.0329ZM177.598 63.7879C179.883 61.1957 183.243 56.2794 183.497 51.1754C183.852 50.2412 185.671 49.3071 185.856 50.1777C185.095 61.231 177.598 63.7879 177.598 63.7879Z" fill="#CC2229"/>
<path fill-rule="evenodd" clip-rule="evenodd" d="M181.116 48.2473C180.683 44.7619 181.631 41.6391 184.867 40.1024C186.452 39.3446 186.694 39.9965 187.334 40.7585C187.973 41.5205 189.291 40.9984 189.367 40.3366C189.665 38.5657 189.359 37.6202 188.51 36.9937C185.544 37.3959 186.064 34.6625 187.739 34.8065C189.497 35.004 189.927 38.0788 190.183 39.909C194.728 39.6099 196.486 42.7101 196.334 48.1401C194.165 44.172 191.687 43.6824 188.832 47.3893C185.98 44.2454 182.759 45.49 181.116 48.2473ZM186.082 40.7275C184.257 41.4528 183.207 42.4011 182.595 44.3484C182.381 45.5196 183.356 45.3842 183.752 44.91C183.78 43.4396 185.409 41.6391 186.082 40.7275Z" fill="#71A077"/>
</svg>
