<svg width="256" height="39" viewBox="0 0 256 39" fill="none" xmlns="http://www.w3.org/2000/svg">
<path d="M18.8312 0.817875C16.4232 0.816294 14.0386 1.29844 11.8137 2.23675C9.5887 3.17505 7.56709 4.5511 5.86441 6.28621C4.16174 8.02132 2.81141 10.0814 1.89064 12.3488C0.969878 14.6161 0.496743 17.0462 0.498295 19.5C0.496743 21.9538 0.969878 24.3838 1.89064 26.6512C2.81141 28.9185 4.16174 30.9786 5.86441 32.7137C7.56709 34.4489 9.5887 35.8249 11.8137 36.7632C14.0386 37.7015 16.4232 38.1837 18.8312 38.1821C28.9644 38.1821 37.2163 29.8262 37.2163 19.5C37.2163 18.7269 37.1995 17.9401 37.1118 17.1911L37.0578 15.956H16.7256V23.58H27.631C26.8724 25.7858 25.9654 27.0896 24.3117 28.1427C23.0372 29.3744 21.0008 29.7163 19.0958 29.6991C13.2732 29.6991 9.0705 24.8358 9.13961 19.2852C9.21042 13.678 13.2647 9.60147 18.7806 9.4606C21.7526 9.38501 23.9762 10.2354 25.8929 12.2522H35.9537C33.162 5.55411 26.4223 0.817875 18.8312 0.817875ZM82.4172 0.817875C80.0092 0.816294 77.6246 1.29844 75.3997 2.23675C73.1747 3.17505 71.1531 4.5511 69.4504 6.28621C67.7477 8.02132 66.3974 10.0814 65.4767 12.3488C64.5559 14.6161 64.0828 17.0462 64.0843 19.5C64.0828 21.9538 64.5559 24.3838 65.4767 26.6512C66.3974 28.9185 67.7477 30.9786 69.4504 32.7137C71.1531 34.4489 73.1747 35.8249 75.3997 36.7632C77.6246 37.7015 80.0092 38.1837 82.4172 38.1821C90.5089 38.1821 97.3094 32.8137 99.7487 25.4044C102.185 32.8222 109.037 38.1821 117.134 38.1821C127.267 38.1821 135.519 29.8262 135.519 19.5C135.519 18.7269 135.556 18.0999 135.467 17.3526L135.361 15.956H115.025V23.58H125.932C125.174 25.7858 124.267 27.0896 122.611 28.1427C121.337 29.3744 119.3 29.7163 117.397 29.6991C111.574 29.6991 107.372 24.8358 107.441 19.2852C107.51 13.678 111.564 9.60147 117.08 9.4606C120.052 9.38501 122.276 10.2354 124.193 12.2522H134.255C131.463 5.55411 124.724 0.817875 117.134 0.817875C108.191 0.817875 100.743 7.32869 99.1165 15.9577H80.256V23.58H91.163C90.4044 25.7858 89.4975 27.0896 87.842 28.1427C86.5693 29.3744 84.5312 29.7163 82.6279 29.6991C76.8052 29.6991 72.6009 24.8358 72.67 19.2852C72.7408 13.678 76.8491 9.60147 82.3633 9.4606C85.3353 9.38501 87.5066 10.2354 89.4233 12.2522H99.4857C96.6941 5.55411 90.0083 0.817875 82.4172 0.817875ZM222.6 1.19409V19.9294C222.629 25.0814 223.532 29.9327 227.025 33.6194C233.443 39.723 241.641 39.2386 247.939 35.9815C253.854 32.1213 255.286 26.4832 255.262 19.9294V1.19409H246.253V20.0909C246.004 25.6054 244.492 28.9828 238.93 29.5926C235.115 29.3349 231.885 27.9761 231.609 20.0909V1.19409H222.6ZM50.9656 1.29889L31.9499 37.7526H42.0107L44.6456 32.2227H56.709L59.1837 37.6993H69.6693L50.9656 1.29889ZM158.805 1.29889L136.782 1.40883V37.4314L158.856 37.3764V28.5189H146.318V22.9358H158.119V15.5815H146.318V9.94505H158.803L158.805 1.29889ZM207.956 1.29889L192.15 31.5235V1.35386H182.721V18.6943L160.698 1.40883V37.4846H169.918V20.8417L190.199 36.3027L192.096 37.7526H198.999L201.634 32.2227H213.697L216.174 37.6993H226.656L207.956 1.29889ZM51.0718 18.3748L54.0219 25.7291H47.594L51.0718 18.3748ZM208.06 18.3748L211.01 25.7291H204.582L208.06 18.3748Z" fill="#10204B"/>
</svg>
