<svg width="253" height="54" viewBox="0 0 253 54" fill="none" xmlns="http://www.w3.org/2000/svg">
<path fill-rule="evenodd" clip-rule="evenodd" d="M43.4725 1.09808H43.8972V0.0838484H29.9143V1.09808C31.6521 1.09808 33.1342 1.39287 34.1836 2.01493C35.233 2.63699 35.8469 3.58767 35.8469 4.894V29.2869L23.1352 14.6428L10.4236 0H0V0.927688L0.7627 1.13864L1.5254 1.3496C2.16098 1.64576 3.00888 2.19344 3.87706 2.92234C4.74524 3.64988 5.63506 4.55727 6.35583 5.57015L6.43968 5.69591L6.52352 5.82303V36.2918C6.52352 38.3176 6.05697 39.605 5.17798 40.3852C4.29898 41.1655 3.00753 41.44 1.35501 41.44H1.01693V42.4529H1.95002C2.41657 42.4529 3.34831 42.411 4.43962 42.3691C5.53093 42.3271 6.78046 42.2852 7.88259 42.2852L11.3986 42.3691L14.9159 42.4529V41.44C13.0511 41.44 11.6528 41.06 10.7211 40.0472C9.78934 39.0343 9.32279 37.3885 9.32279 34.857V9.28493L35.7617 40.1756C36.4406 40.9775 36.949 41.5049 37.3304 41.8322C37.7117 42.1595 37.966 42.2866 38.135 42.2866C38.304 42.2866 38.4312 42.1811 38.5164 41.9904C38.6002 41.7998 38.6435 41.5266 38.6435 41.1885L38.6015 38.9951L38.5596 36.8003V5.31861C38.5596 3.7567 38.8139 2.70191 39.5549 2.03793C40.2946 1.37124 41.5252 1.09808 43.4725 1.09808ZM89.4171 39.3805C88.4002 38.9153 87.8917 38.5786 87.6388 36.1728C87.3846 33.7684 87.3846 29.295 87.3846 20.5591V14.4832L77.8928 14.567H77.5547V15.2432C77.5966 15.3703 77.6183 15.4325 77.671 15.465C77.7237 15.4974 77.8089 15.4961 77.9793 15.4961C79.8009 15.4961 80.903 15.8125 81.5494 16.5725C82.1958 17.3325 82.3865 18.5347 82.3865 20.3076V36.2594C81.0315 37.6103 79.9713 38.5177 78.9435 39.087C77.9158 39.6577 76.9205 39.8889 75.6912 39.8889C73.9116 39.8889 72.7459 39.2141 72.0265 37.8416C71.3057 36.4703 71.0312 34.4026 71.0312 31.6169V14.4832L61.5393 14.3993V15.2432C61.5813 15.3703 61.6232 15.4325 61.7084 15.465C61.7936 15.4974 61.9207 15.4961 62.1317 15.4961C63.699 15.4961 64.6956 15.707 65.2988 16.467C65.9019 17.227 66.1142 18.5347 66.1142 20.7295V33.8969C66.1142 36.8517 66.7498 39.3196 68.0101 41.0492C69.2705 42.7802 71.1569 43.7714 73.656 43.7714C74.5877 43.7714 75.8589 43.3711 77.3424 42.4854C78.8259 41.5983 80.5203 40.227 82.2999 38.2865L82.427 38.1593L82.5542 38.0322V43.5185L87.3413 41.7876L92.1298 40.058V39.467C92.0371 39.434 91.9416 39.4091 91.8445 39.3927C91.7701 39.3818 91.7066 39.3818 91.6214 39.3818L89.4171 39.3805ZM221.778 37.6833V19.96C221.778 18.0614 221.018 16.394 219.755 15.2013C218.495 14.0099 216.737 13.2918 214.745 13.2918C213.559 13.2918 212.968 13.2918 211.789 13.9139C210.613 14.5359 208.857 15.7814 205.338 18.271L205.254 18.3548L205.17 18.4387V13.1214L200.678 15.1052L196.188 17.0877V17.8477C197.332 17.8477 198.391 17.9113 199.165 18.2805C199.938 18.6496 200.425 19.3244 200.425 20.5483V37.6806C200.425 38.9897 200.298 39.9173 199.96 40.5286C199.619 41.1412 199.07 41.436 198.222 41.4793L197.501 41.5198L196.783 41.5617V42.4056H209.07V41.5617C207.629 41.5617 206.654 41.4143 206.041 40.9613C205.426 40.5069 205.172 39.7483 205.172 38.5245L205.256 20.5469C207.841 18.6483 209.133 17.699 210.022 17.223C210.912 16.7469 211.399 16.7483 212.373 16.7483C213.899 16.7483 215.085 17.3176 215.889 18.3738C216.695 19.4286 217.119 20.9688 217.119 22.9108V37.6793C217.119 39.3264 217.119 40.1486 216.631 40.6354C216.146 41.1195 215.171 41.2683 213.222 41.5631V42.4069H225.677V41.5631C225.614 41.5297 225.546 41.5046 225.477 41.4887C225.424 41.4793 225.382 41.4793 225.339 41.4793C223.897 41.4793 223.009 41.3102 222.479 40.7504C221.95 40.1959 221.778 39.2466 221.778 37.6833ZM147.573 17.5894C145.043 14.7726 141.609 13.0633 138.009 13.0633C134.449 13.0633 131.082 14.7509 128.602 17.4731C126.123 20.1953 124.534 23.9507 124.534 28.086C124.534 32.3918 126.166 36.189 128.696 38.9112C131.229 41.6334 134.66 43.2778 138.262 43.2778C141.947 43.2778 145.317 41.6956 147.762 39.0897C150.211 36.4838 151.735 32.8542 151.735 28.7608C151.735 24.3307 150.106 20.4063 147.573 17.5894ZM144.663 38.2418C143.432 40.1621 141.654 41.3224 139.45 41.3224C136.909 41.3224 134.429 39.5482 132.588 36.7124C130.745 33.8725 129.537 29.9711 129.537 25.7073C129.537 22.9216 130.15 20.3481 131.325 18.4698C132.503 16.5914 134.238 15.4095 136.483 15.4095C139.365 15.4095 141.887 17.2027 143.688 19.9992C145.486 22.7945 146.567 26.5917 146.567 30.6013C146.567 33.6413 145.891 36.3216 144.663 38.2418Z" fill="black"/>
<path fill-rule="evenodd" clip-rule="evenodd" d="M173.7 37.9403C172.258 36.8219 170.181 36.2932 167.641 36.2932L164.377 36.3351L161.115 36.377C159.507 36.377 158.444 36.2499 157.79 35.9659C157.133 35.6806 156.878 35.237 156.878 34.6042C156.878 34.1822 157.026 33.6751 157.311 33.191C157.621 32.6657 158.055 32.2239 158.574 31.9036L158.701 31.8197L158.828 31.7359C159.718 31.9049 160.458 32.0104 161.084 32.074C161.71 32.1375 162.217 32.1578 162.642 32.1578C165.521 32.1578 167.979 31.2288 169.717 29.5844C171.452 27.9373 172.469 25.5748 172.469 22.7052C172.469 22.2833 172.469 22.0926 172.342 21.5341C172.215 20.9743 171.962 20.0466 171.452 18.1479H175.606V15.5312H168.911C167.47 14.6455 166.389 14.0748 165.393 13.7273C164.397 13.3797 163.488 13.2526 162.384 13.2526C159.632 13.2526 157.066 14.371 155.192 16.1533C153.316 17.937 152.13 20.3833 152.13 23.0433C152.13 24.351 152.598 26.0386 153.411 27.5059C154.228 28.9718 155.392 30.2173 156.792 30.6378L156.282 31.314L155.775 31.9888C154.674 33.0436 153.91 33.8874 153.425 34.6677C152.936 35.448 152.724 36.1661 152.724 36.968C152.724 38.6137 153.337 39.3088 153.952 39.6685C154.567 40.0269 155.18 40.0472 155.18 40.3433C155.18 40.5976 153.972 41.6307 152.766 42.9492C151.558 44.2691 150.349 45.8716 150.349 47.2644C150.349 48.825 151.622 50.2611 153.667 51.3051C155.711 52.3477 158.53 53.0036 161.622 53.0036C165.391 53.0036 168.973 51.8853 171.612 50.0921C174.247 48.2989 175.943 45.8296 175.943 43.1291C175.945 40.768 175.14 39.0573 173.7 37.9403ZM158.428 16.9985C159.129 15.922 160.166 15.2892 161.521 15.2892C163.175 15.2892 164.635 16.4075 165.683 18.1277C166.731 19.8464 167.368 22.1684 167.368 24.5741C167.368 26.2199 166.967 27.6546 166.193 28.6783C165.42 29.7007 164.276 30.3133 162.791 30.3133C161.309 30.3133 159.954 29.4059 158.969 27.8332C157.983 26.2618 157.368 24.0251 157.368 21.3664C157.369 19.5936 157.729 18.0749 158.428 16.9985ZM171.487 47.7648C169.963 48.7993 167.716 49.4741 164.834 49.4741C161.699 49.4741 159.222 48.99 157.526 48.2178C155.833 47.4483 154.922 46.3922 154.922 45.2536C154.922 43.4388 155.323 42.3001 156.171 41.6145C157.019 40.9289 158.311 40.6963 160.09 40.6963C166.276 40.6963 169.706 40.6747 171.593 41.0655C173.479 41.4563 173.817 42.2582 173.817 43.904C173.816 45.3387 173.013 46.7303 171.487 47.7648ZM246.804 39.229C246.382 39.4711 246.212 39.4711 245.872 39.4711C245.407 39.4711 245.049 39.2398 244.803 38.7111C244.559 38.1837 244.433 37.3615 244.433 36.1796L244.517 22.9283C244.517 19.6368 243.711 17.2094 242.145 15.607C240.577 14.0018 238.247 13.2215 235.196 13.2215C232.737 13.2215 230.175 13.9599 228.226 15.1945C226.277 16.4292 224.943 18.1588 224.943 20.1426C224.943 21.1974 225.197 21.9357 225.619 22.4104C226.043 22.8851 226.636 23.096 227.315 23.096C228.077 23.096 228.753 22.8418 229.243 22.4199C229.728 21.998 230.027 21.407 230.027 20.7308C230.036 20.145 229.994 19.5594 229.9 18.981C229.834 18.6213 229.773 18.4522 229.773 18.3684C229.773 17.2284 230.302 16.321 231.15 15.6989C231.998 15.0769 233.162 14.7388 234.433 14.7388C235.788 14.7388 236.977 15.2459 237.822 16.2047C238.67 17.1648 239.18 18.5793 239.18 20.3941L239.138 22.2508L239.096 24.1076L236.003 25.3314L232.91 26.5552C230.114 27.6533 227.931 29.0029 226.448 30.554C224.966 32.1037 224.181 33.8563 224.181 35.7563C224.181 37.8659 224.836 39.6793 225.93 40.9681C227.021 42.2555 228.545 43.0155 230.283 43.0155C231.638 43.0155 232.996 42.7193 234.445 42.0865C235.895 41.4536 237.443 40.4813 239.181 39.1317L239.265 39.0478L239.349 38.964C239.56 40.104 239.941 41.1371 240.556 41.8863C241.172 42.6355 242.02 43.0993 243.164 43.0993C244.053 43.0993 244.986 42.7829 245.971 42.1608C246.954 41.5374 247.994 40.6097 249.096 39.3859L249.18 39.2588L249.264 39.1317V37.5278C247.907 38.5001 247.229 38.9856 246.804 39.229ZM239.017 37.1194L238.934 37.2479L238.85 37.3737C238.174 38.0485 237.368 38.5975 236.531 38.9775C235.693 39.3575 234.824 39.5698 234.019 39.5698C232.749 39.5698 231.584 38.9369 230.736 37.9768C229.888 37.0167 229.359 35.7293 229.359 34.4202C229.359 32.5635 229.996 31.2139 231.53 29.9468C233.067 28.6797 235.503 27.4991 239.105 25.9791L239.017 37.1194ZM64.2387 32.0753C64.186 31.9063 64.0792 31.7792 63.8682 31.7792C63.614 31.7792 63.0217 33.4885 61.6978 35.1978C60.3739 36.9071 58.3184 38.6151 55.1404 38.6151C51.9625 38.6151 49.5906 37.0964 48.0003 34.7326C46.4113 32.3701 45.6067 29.1625 45.5634 25.7858V25.1948L53.4866 25.1529L61.4097 25.111C62.3847 25.111 62.9135 25.111 63.2002 25.0163C63.4855 24.9216 63.5288 24.7323 63.5288 24.351C63.5327 21.5028 62.4793 18.7546 60.5726 16.6388C58.7186 14.6022 56.1141 13.2945 53.1052 13.2945C49.5459 13.2945 46.5587 14.9186 44.4613 17.6084C42.3639 20.2981 41.1562 24.0548 41.1562 28.3173C41.1562 32.4107 42.5329 36.2715 44.7155 39.11C46.8981 41.9472 49.8854 43.762 53.1052 43.762C54.3703 43.7606 55.6203 43.4867 56.77 42.9587C57.9343 42.4313 59.0364 41.651 60.0534 40.6381C60.7309 39.962 61.7911 38.4853 62.6809 36.9139C63.5707 35.3425 64.2901 33.6738 64.2901 32.619C64.2997 32.4362 64.2824 32.2531 64.2387 32.0753ZM45.9461 22.5889L45.988 22.336C46.3261 20.2264 47.0685 18.559 48.1179 17.4204C49.166 16.2804 50.5223 15.6692 52.091 15.6692C53.3189 15.6692 54.5914 16.2818 55.5556 17.273C56.5184 18.2642 57.1757 19.6368 57.1757 21.1555C57.1757 21.9574 56.9633 22.359 56.3278 22.5808C55.6922 22.8026 45.9042 22.8445 45.9042 22.8445L45.9461 22.5889Z" fill="black"/>
<path fill-rule="evenodd" clip-rule="evenodd" d="M197.173 32.0753C197.12 31.9063 197.014 31.7791 196.803 31.7791C196.549 31.7791 195.956 33.4885 194.622 35.1978C193.289 36.9071 191.213 38.615 187.993 38.615C185.067 38.615 182.695 37.306 181.052 35.1761C179.411 33.0449 178.5 30.0901 178.5 26.7986C178.5 26.2509 178.522 25.8493 178.584 25.5869C178.647 25.3232 178.753 25.1961 178.922 25.1961L186.634 25.1542L194.346 25.1123C195.363 25.1123 195.892 25.1123 196.167 25.0176C196.444 24.923 196.465 24.7336 196.465 24.3523C196.465 21.3975 195.365 18.6334 193.509 16.609C191.655 14.5832 189.048 13.2958 186.04 13.2958C182.524 13.2958 179.537 14.8997 177.43 17.5678C175.322 20.2372 174.094 23.9723 174.094 28.2348C174.094 32.3282 175.449 36.2093 177.62 39.0708C179.79 41.9282 182.777 43.766 186.04 43.766C187.271 43.766 188.521 43.4698 189.707 42.9316C190.928 42.3701 192.04 41.5953 192.99 40.6435C193.711 39.9254 194.77 38.4271 195.65 36.8557C196.53 35.2843 197.229 33.6372 197.229 32.6243C197.228 32.4539 197.228 32.2443 197.173 32.0753ZM178.879 22.5889L178.921 22.336C179.261 20.2683 180.001 18.6009 181.052 17.4515C182.1 16.302 183.455 15.6691 185.025 15.6691C186.211 15.6691 187.481 16.2601 188.456 17.2405C189.431 18.2223 190.11 19.5935 190.11 21.1554C190.11 21.9574 189.938 22.359 189.325 22.5808C188.71 22.8025 178.837 22.8445 178.837 22.8445L178.879 22.5889ZM120.041 17.5191C120.931 17.5191 121.334 17.9626 121.821 18.4048C122.308 18.8484 122.88 19.2906 124.109 19.2906C124.956 19.2906 125.592 19.0594 126.016 18.5942C126.439 18.1303 126.651 17.4339 126.651 16.5049C126.651 15.7029 126.355 14.8807 125.814 14.2587C125.531 13.9269 125.178 13.6614 124.781 13.481C124.384 13.3006 123.952 13.2097 123.515 13.2147C122.584 13.2147 122.117 13.2147 121.227 13.8259C120.337 14.4385 119.024 15.661 116.398 18.1087L116.229 18.2345L116.06 18.3616V12.9605L111.569 14.7333L107.078 16.5062V17.0972C107.127 17.1538 107.184 17.2034 107.247 17.2446C107.29 17.2662 107.332 17.2662 107.417 17.2662C108.858 17.2662 109.875 17.3501 110.532 17.6462C111.188 17.941 111.485 18.4481 111.485 19.292L111.57 38.1972C111.57 39.3372 111.231 40.0958 110.564 40.5718C109.896 41.0465 108.902 41.2358 107.588 41.2358C107.419 41.2358 107.312 41.2358 107.206 41.2575C107.073 41.2894 106.945 41.339 106.825 41.4049V42.3339H121.485V41.5752C121.485 41.4914 121.442 41.4278 121.348 41.3846C121.201 41.3341 121.046 41.3126 120.892 41.321C119.366 41.321 118.159 40.9194 117.333 40.0647C116.506 39.2101 116.061 37.9024 116.061 36.0876V20.7268C117.162 19.3339 117.819 18.532 118.371 18.0789C118.923 17.6259 119.364 17.5191 120.041 17.5191ZM106.026 37.256C105.772 37.256 105.497 37.8672 104.893 38.4785C104.29 39.0911 103.356 39.7023 101.789 39.7023C100.857 39.7023 100.073 39.3237 99.5227 38.5515C98.9723 37.782 98.6545 36.6204 98.6545 35.0598V16.0708H104.162V13.9598H98.6545V5.85681H97.213C96.7045 7.3768 96.3015 8.47353 95.8674 9.38092C95.4333 10.2883 94.9668 11.0064 94.3326 11.7664C93.3575 12.9889 92.2135 13.7705 91.2182 14.3195C90.2229 14.8672 89.375 15.185 88.9937 15.4798V16.0708C90.7733 16.1546 91.8754 16.1979 92.5326 16.2398C93.1885 16.2817 93.4008 16.3237 93.4008 16.4088V35.0612C93.4008 37.5927 93.9512 39.7037 94.9573 41.1804C95.9634 42.6571 97.4253 43.5009 99.2468 43.5009C100.137 43.5009 101.938 42.9532 103.516 41.9715C105.094 40.9897 106.451 39.5765 106.451 37.8456C106.448 37.7071 106.408 37.572 106.334 37.4548C106.26 37.3398 106.154 37.256 106.026 37.256ZM249.794 14.2384C248.048 14.2384 246.571 15.5758 246.571 17.3893C246.571 19.2203 248.048 20.5564 249.794 20.5564C251.523 20.5564 253 19.2189 253 17.3893C253 15.5758 251.523 14.2384 249.794 14.2384ZM249.794 20.0303C248.341 20.0303 247.211 18.9106 247.211 17.3893C247.211 15.8936 248.341 14.7658 249.794 14.7658C251.228 14.7658 252.36 15.8936 252.36 17.3893C252.36 18.9106 251.227 20.0303 249.794 20.0303Z" fill="black"/>
<path fill-rule="evenodd" clip-rule="evenodd" d="M250.307 17.6151C250.845 17.5475 251.254 17.2635 251.254 16.613C251.254 15.8936 250.827 15.5758 249.963 15.5758H248.572V19.2189H249.123V17.6394H249.763L250.727 19.2189H251.348L250.307 17.6151ZM249.123 17.1715V16.0437H249.879C250.265 16.0437 250.677 16.1276 250.677 16.5792C250.677 17.1391 250.257 17.1729 249.787 17.1729L249.123 17.1715Z" fill="black"/>
</svg>
