<svg width="262" height="39" viewBox="0 0 262 39" fill="none" xmlns="http://www.w3.org/2000/svg">
<path fill-rule="evenodd" clip-rule="evenodd" d="M0 25.9089V27.7119C0 38.2989 7.43281 38.0751 15.7693 38.0751C25.4555 38.0751 30.4112 37.1729 30.4112 26.5845C30.4112 17.122 27.2571 16.4464 15.7693 15.7708C8.33505 15.3204 7.43281 15.3204 7.43281 10.5884C7.43281 6.53352 8.56025 5.85794 15.7693 5.85794C20.725 5.85794 22.528 6.08313 22.528 10.1381V11.2655H29.7371V10.1381C29.7371 0.225193 23.4288 0 15.7693 0C6.75724 0 0.223721 0.225193 0.223721 10.5884C0.223721 21.6273 6.75723 21.1754 14.8671 21.6273C20.2747 22.0791 23.2036 21.4036 23.2036 26.583C23.2036 31.0883 22.3029 32.2142 15.7693 32.2142C9.01063 32.2142 7.20909 31.9905 7.20909 27.7089V25.9059H0V25.9089ZM52.2652 29.5134C52.2652 33.3432 49.7866 33.3432 46.4087 33.3432C40.5522 33.3432 40.5522 31.5402 40.5522 25.9089H58.5735C58.5735 14.4182 57.2224 11.2655 46.4087 11.2655C35.5951 11.2655 34.2439 15.3204 34.2439 24.7814C34.2439 34.921 36.2706 38.0737 46.4087 38.0737C53.8415 38.0737 58.5735 37.847 58.5735 29.5134H52.2652ZM40.5508 21.8525C40.5508 17.122 40.776 15.996 46.4072 15.996C51.3629 15.996 52.2637 16.4464 52.2637 21.8525H40.5508ZM63.3025 11.4892V37.847H69.6109V21.6273C69.3857 18.2479 70.5116 15.9945 74.3414 15.9945C77.2703 15.9945 77.4955 17.5723 77.4955 20.2761V21.6273H83.3535V19.6005C83.3535 14.6434 82.0023 11.264 76.5948 11.264C73.4406 11.264 70.7368 12.1648 69.6109 15.0938H69.1605L69.3857 11.4892H63.3025ZM104.754 29.5134C104.754 33.3432 102.275 33.3432 98.8976 33.3432C93.0411 33.3432 93.0411 31.5402 93.0411 25.9089H111.062C111.062 14.4182 109.713 11.2655 98.8976 11.2655C88.084 11.2655 86.7328 15.3204 86.7328 24.7814C86.7328 34.921 88.7596 38.0737 98.8976 38.0737C106.332 38.0737 111.062 37.847 111.062 29.5134H104.754ZM93.0397 21.8525C93.0397 17.122 93.2649 15.996 98.8961 15.996C103.852 15.996 104.753 16.4464 104.753 21.8525H93.0397ZM116.245 11.4892V37.847H122.553V23.4303C122.553 18.6998 123.229 15.996 128.863 15.996C132.916 15.996 133.592 17.3472 133.592 21.1769V37.847H139.899V20.5013C139.899 14.193 137.872 11.2655 130.89 11.2655C127.285 11.2655 124.131 11.7159 122.778 15.5456H122.553V11.4892H116.245ZM163.102 29.5134C163.102 33.3432 160.849 33.3432 157.246 33.3432C151.612 33.3432 151.388 31.5402 151.388 25.9089H169.409C169.409 14.4182 168.058 11.2655 157.246 11.2655C146.656 11.2655 145.08 15.3204 145.08 24.7814C145.08 34.921 147.106 38.0737 157.246 38.0737C164.68 38.0737 169.409 37.847 169.409 29.5134H163.102ZM151.388 21.8525C151.388 17.122 151.84 15.996 157.246 15.996C162.427 15.996 163.102 16.4464 163.102 21.8525H151.388ZM171.439 16.4464H174.817V29.9653C174.817 36.4973 176.844 38.0751 183.829 38.0751C190.588 38.0751 192.614 35.8217 192.389 27.7119H186.982C186.982 30.6379 187.205 33.3432 183.827 33.3432C181.122 33.3432 181.122 32.2157 181.122 29.7386V16.4479H191.034V11.4892H181.122V5.63275H174.815V11.4892H171.437V16.4464H171.439ZM192.613 16.4464H195.991V29.9653C195.991 36.4973 198.02 38.0751 205.003 38.0751C211.762 38.0751 213.788 35.8217 213.788 27.7119H208.157C208.157 30.6379 208.609 33.3432 205.003 33.3432C202.301 33.3432 202.301 32.2157 202.301 29.7386V16.4479H212.437V11.4892H202.301V5.63275H195.991V11.4892H192.613V16.4464ZM234.291 29.5134C234.291 33.3432 231.812 33.3432 228.208 33.3432C222.577 33.3432 222.577 31.5402 222.577 25.9089H240.598C240.598 14.4182 239.02 11.2655 228.208 11.2655C217.621 11.2655 216.267 15.3204 216.267 24.7814C216.267 34.921 218.297 38.0737 228.208 38.0737C235.866 38.0737 240.598 37.847 240.598 29.5134H234.291ZM222.577 21.8525C222.577 17.122 222.8 15.996 228.208 15.996C233.389 15.996 234.291 16.4464 234.291 21.8525H222.577ZM252.536 19.602C257.718 19.602 262 15.3204 262 9.91434C262 4.73198 257.72 0.451866 252.536 0.451866C247.131 0.451866 243.075 4.73198 243.075 9.91434C243.075 15.3204 247.131 19.602 252.536 19.602ZM252.536 17.7975C248.256 17.7975 244.878 14.193 244.878 9.91287C244.878 5.63275 248.256 2.2534 252.536 2.2534C256.816 2.2534 260.197 5.63275 260.197 9.91287C260.197 14.193 256.816 17.7975 252.536 17.7975ZM254.789 10.8136C256.592 10.5884 257.492 9.91287 257.492 7.66095C257.492 5.18089 255.689 4.95571 253.662 4.95571H248.481V15.0938H250.508V10.8136H252.535L255.016 15.0938H257.267L254.789 10.8136ZM250.509 9.23729V6.3098H252.988C254.115 6.3098 255.466 6.3098 255.466 7.66242C255.466 9.0121 254.791 9.23729 253.663 9.23729H250.509Z" fill="#0C0E0F"/>
</svg>
