<svg width="250" height="78" viewBox="0 0 250 78" fill="none" xmlns="http://www.w3.org/2000/svg">
<path fill-rule="evenodd" clip-rule="evenodd" d="M0 19.567H7.06657V4.89277H27.1773V19.5683H54.8957V49.4605C54.8957 53.2671 58.7009 55.9847 61.9623 55.9847C65.7675 55.9847 68.4851 53.2671 68.4851 49.4605V19.567H88.052V71.7451H69.5699V67.3961C69.5699 67.3961 66.3085 70.6575 60.8733 72.8313C57.612 74.4627 53.2644 75.0065 48.9167 73.3737C48.9167 73.3737 35.8725 71.2013 35.8725 51.0905V33.155H27.176V53.2657C27.176 53.2657 27.7184 59.2447 35.3288 57.612V71.7437C35.3288 71.7437 27.176 75.5475 19.567 73.3724C19.567 73.3724 7.609 72.8299 7.609 56.5257V33.155H0V19.567ZM90.7669 0H111.421V31.5249L122.836 19.567H145.12L128.813 39.6777L146.749 71.7451H124.466L114.139 55.4381L111.421 57.6133V71.7451H90.7669V0Z" fill="#C9322D"/>
<path fill-rule="evenodd" clip-rule="evenodd" d="M158.163 19.5669C175.556 15.7617 185.34 20.6531 185.34 20.6531C195.665 24.4583 195.123 36.4149 195.123 36.4149L196.209 67.3947C196.209 69.026 198.927 71.7436 198.927 71.7436H179.36C178.274 71.2012 176.645 67.9398 176.645 67.9398C162.513 77.1788 152.185 72.2861 152.185 72.2861C142.946 68.4822 142.946 59.2432 142.946 59.2432C142.946 47.2866 151.643 44.0225 151.643 44.0225C153.274 42.9363 163.599 40.7611 163.599 40.7611C165.775 40.7611 172.296 39.1325 172.296 39.1325C176.1 37.5011 174.471 34.2397 174.471 34.2397C173.929 30.9783 169.036 32.0659 169.036 32.0659C162.515 32.6097 162.515 38.5873 162.515 38.5873H144.579C142.945 22.8283 158.163 19.5669 158.163 19.5669ZM161.967 53.2656C163.598 56.527 165.773 57.0694 165.773 57.0694C170.12 58.6981 173.381 55.4381 173.381 55.4381C178.274 51.6342 175.012 46.199 175.012 46.199L163.598 50.548C161.423 52.1767 161.967 53.2656 161.967 53.2656Z" fill="#C9322D"/>
<path fill-rule="evenodd" clip-rule="evenodd" d="M228.277 33.6973C228.277 33.6973 227.191 29.3497 221.755 29.3497C221.755 29.3497 218.494 29.3497 216.863 32.0686C216.863 32.0686 216.32 34.2424 219.58 34.7862C219.58 34.7862 227.733 36.4162 232.081 36.96C232.623 36.96 245.67 38.0463 248.388 48.3742C248.388 48.3742 252.191 57.6132 245.126 65.2236C245.126 65.2236 240.777 70.1136 231.537 71.2026L228.275 77.1816H212.516L214.145 71.7464C214.145 71.7464 201.645 70.6574 198.385 59.246C198.385 59.246 197.298 54.897 197.298 53.8108H217.406C217.406 53.8108 218.495 58.157 220.668 59.246C220.668 59.246 223.932 60.8746 228.278 58.7008C228.278 58.7008 229.909 57.6146 229.364 54.3546C229.364 54.3546 229.364 53.2683 227.736 53.2683C227.736 53.2683 213.604 51.0932 205.996 48.3756C205.996 48.3756 197.3 44.5718 197.3 33.1562C197.3 33.1562 197.3 23.3734 210.886 19.5682C210.886 19.5682 221.758 15.2206 232.626 17.9369C232.626 17.9369 247.846 20.1107 247.304 33.6986L228.277 33.6973Z" fill="#C9322D"/>
</svg>
