<svg width="38" height="28" viewBox="0 0 38 28" fill="none" xmlns="http://www.w3.org/2000/svg">
<path d="M29.0001 17.3333V12.3333H24.0001V8.99996H29.0001V3.99996H32.3334V8.99996H37.3334V12.3333H32.3334V17.3333H29.0001ZM14.0001 14C12.1667 14 10.5973 13.3472 9.29175 12.0416C7.98619 10.7361 7.33341 9.16663 7.33341 7.33329C7.33341 5.49996 7.98619 3.93052 9.29175 2.62496C10.5973 1.3194 12.1667 0.666626 14.0001 0.666626C15.8334 0.666626 17.4029 1.3194 18.7084 2.62496C20.014 3.93052 20.6667 5.49996 20.6667 7.33329C20.6667 9.16663 20.014 10.7361 18.7084 12.0416C17.4029 13.3472 15.8334 14 14.0001 14ZM0.666748 27.3333V22.6666C0.666748 21.7222 0.910081 20.8538 1.39675 20.0616C1.8823 19.2705 2.52786 18.6666 3.33341 18.25C5.05564 17.3888 6.80564 16.7427 8.58341 16.3116C10.3612 15.8816 12.1667 15.6666 14.0001 15.6666C15.8334 15.6666 17.639 15.8816 19.4167 16.3116C21.1945 16.7427 22.9445 17.3888 24.6667 18.25C25.4723 18.6666 26.1179 19.2705 26.6034 20.0616C27.0901 20.8538 27.3334 21.7222 27.3334 22.6666V27.3333H0.666748ZM4.00008 24H24.0001V22.6666C24.0001 22.3611 23.924 22.0833 23.7717 21.8333C23.6184 21.5833 23.4167 21.3888 23.1667 21.25C21.6667 20.5 20.1529 19.9372 18.6251 19.5616C17.0973 19.1872 15.5556 19 14.0001 19C12.4445 19 10.9029 19.1872 9.37508 19.5616C7.8473 19.9372 6.33341 20.5 4.83341 21.25C4.58341 21.3888 4.3823 21.5833 4.23008 21.8333C4.07675 22.0833 4.00008 22.3611 4.00008 22.6666V24ZM14.0001 10.6666C14.9167 10.6666 15.7017 10.34 16.3551 9.68663C17.0073 9.0344 17.3334 8.24996 17.3334 7.33329C17.3334 6.41663 17.0073 5.63218 16.3551 4.97996C15.7017 4.32663 14.9167 3.99996 14.0001 3.99996C13.0834 3.99996 12.299 4.32663 11.6467 4.97996C10.9934 5.63218 10.6667 6.41663 10.6667 7.33329C10.6667 8.24996 10.9934 9.0344 11.6467 9.68663C12.299 10.34 13.0834 10.6666 14.0001 10.6666Z" fill="#2B75B9"/>
</svg>
