<svg width="40" height="39" viewBox="0 0 40 39" fill="none" xmlns="http://www.w3.org/2000/svg">
<path d="M5 18.3144C7.76142 18.3144 10 16.0758 10 13.3144C10 10.553 7.76142 8.31439 5 8.31439C2.23858 8.31439 0 10.553 0 13.3144C0 16.0758 2.23858 18.3144 5 18.3144Z" fill="#272727"/>
<path d="M14 10.3143C16.7614 10.3143 19 8.07576 19 5.31433C19 2.55291 16.7614 0.314331 14 0.314331C11.2386 0.314331 9 2.55291 9 5.31433C9 8.07576 11.2386 10.3143 14 10.3143Z" fill="#272727"/>
<path d="M26 10.3143C28.7614 10.3143 31 8.07576 31 5.31433C31 2.55291 28.7614 0.314331 26 0.314331C23.2386 0.314331 21 2.55291 21 5.31433C21 8.07576 23.2386 10.3143 26 10.3143Z" fill="#272727"/>
<path d="M35 18.3144C37.7614 18.3144 40 16.0758 40 13.3144C40 10.553 37.7614 8.31439 35 8.31439C32.2386 8.31439 30 10.553 30 13.3144C30 16.0758 32.2386 18.3144 35 18.3144Z" fill="#272727"/>
<path d="M30.68 24.0343C28.94 21.9943 27.48 20.2543 25.72 18.2143C24.8 17.1343 23.62 16.0543 22.22 15.5743C22 15.4943 21.78 15.4343 21.56 15.3943C21.06 15.3143 20.52 15.3143 20 15.3143C19.48 15.3143 18.94 15.3143 18.42 15.4143C18.2 15.4543 17.98 15.5143 17.76 15.5943C16.36 16.0743 15.2 17.1543 14.26 18.2343C12.52 20.2743 11.06 22.0143 9.30004 24.0543C6.68004 26.6743 3.46004 29.5743 4.06004 33.6343C4.64004 35.6743 6.10004 37.6943 8.72004 38.2743C10.18 38.5743 14.84 37.3943 19.8 37.3943H20.16C25.12 37.3943 29.78 38.5543 31.24 38.2743C33.86 37.6943 35.32 35.6543 35.9 33.6343C36.52 29.5543 33.3 26.6543 30.68 24.0343Z" fill="#272727"/>
</svg>
