<svg width="22" height="22" viewBox="0 0 22 22" fill="none" xmlns="http://www.w3.org/2000/svg">
<path fill-rule="evenodd" clip-rule="evenodd" d="M21.3333 11C21.3333 10.4477 20.8855 10 20.3333 10H1.66659C1.1143 10 0.666586 10.4477 0.666586 11C0.666586 11.5523 1.1143 12 1.66659 12H20.3333C20.8855 12 21.3333 11.5523 21.3333 11Z" fill="black"/>
<path fill-rule="evenodd" clip-rule="evenodd" d="M11.7071 0.959519C11.3166 0.568995 10.6834 0.568995 10.2929 0.959519L0.95956 10.2929C0.569036 10.6834 0.569036 11.3165 0.95956 11.7071L10.2929 21.0404C10.6834 21.4309 11.3166 21.4309 11.7071 21.0404C12.0976 20.6499 12.0976 20.0167 11.7071 19.6262L3.08088 11L11.7071 2.37373C12.0976 1.98321 12.0976 1.35004 11.7071 0.959519Z" fill="black"/>
</svg>
