<svg width="21" height="21" viewBox="0 0 21 21" fill="none" xmlns="http://www.w3.org/2000/svg">
<path d="M9.45825 13.625H11.5416V15.7084H9.45825V13.625ZM9.45825 5.29171H11.5416V11.5417H9.45825V5.29171ZM10.4895 0.083374C4.7395 0.083374 0.083252 4.75004 0.083252 10.5C0.083252 16.25 4.7395 20.9167 10.4895 20.9167C16.2499 20.9167 20.9166 16.25 20.9166 10.5C20.9166 4.75004 16.2499 0.083374 10.4895 0.083374ZM10.4999 18.8334C5.89575 18.8334 2.16659 15.1042 2.16659 10.5C2.16659 5.89587 5.89575 2.16671 10.4999 2.16671C15.1041 2.16671 18.8333 5.89587 18.8333 10.5C18.8333 15.1042 15.1041 18.8334 10.4999 18.8334Z" fill="#2B75B9"/>
</svg>
