<svg width="40" height="38" viewBox="0 0 40 38" fill="none" xmlns="http://www.w3.org/2000/svg">
<path d="M37 2.60502C36.0631 1.82156 34.9651 1.254 33.7841 0.942623C32.6031 0.631247 31.3681 0.583697 30.1667 0.803348L23.7967 1.96001C22.326 2.23009 20.9888 2.98673 20 4.10835C19.0086 2.98479 17.6676 2.22798 16.1933 1.96001L9.83334 0.803348C8.63193 0.583504 7.39689 0.630432 6.21563 0.940808C5.03437 1.25118 3.93578 1.81742 2.99761 2.59944C2.05944 3.38145 1.30464 4.36013 0.786637 5.46619C0.26863 6.57226 8.13541e-05 7.77866 0 9.00002L0 26.9883C9.57598e-05 28.9397 0.684961 30.8291 1.93522 32.3273C3.18548 33.8255 4.92185 34.8374 6.84167 35.1867L17.3183 37.0917C19.0916 37.4139 20.9084 37.4139 22.6817 37.0917L33.1667 35.1867C35.085 34.8357 36.8194 33.823 38.068 32.325C39.3166 30.827 40.0003 28.9385 40 26.9883V9.00002C40.0008 7.77909 39.7323 6.57301 39.2138 5.46767C38.6952 4.36233 37.9394 3.38491 37 2.60502ZM18.3333 33.88C18.1933 33.86 18.0533 33.8367 17.9133 33.8117L7.43833 31.9083C6.28627 31.6987 5.24432 31.0914 4.49415 30.1923C3.74397 29.2932 3.33316 28.1593 3.33333 26.9883V9.00002C3.33333 7.67393 3.86012 6.40216 4.7978 5.46448C5.73548 4.5268 7.00725 4.00001 8.33333 4.00001C8.63515 4.00073 8.93632 4.02806 9.23333 4.08168L15.6 5.24835C16.366 5.38852 17.0588 5.79247 17.5581 6.39009C18.0574 6.98771 18.3316 7.74128 18.3333 8.52002V33.88ZM36.6667 26.9883C36.6668 28.1593 36.256 29.2932 35.5059 30.1923C34.7557 31.0914 33.7137 31.6987 32.5617 31.9083L22.0867 33.8117C21.9467 33.8367 21.8067 33.86 21.6667 33.88V8.52002C21.6666 7.73937 21.9404 6.98344 22.4405 6.38403C22.9407 5.78462 23.6353 5.37975 24.4033 5.24001L30.7717 4.07335C31.4929 3.94213 32.2341 3.9711 32.9429 4.1582C33.6516 4.3453 34.3106 4.68595 34.873 5.15602C35.4355 5.6261 35.8877 6.2141 36.1977 6.87839C36.5077 7.54267 36.6678 8.26698 36.6667 9.00002V26.9883Z" fill="#272727"/>
</svg>
