<svg width="38" height="29" viewBox="0 0 38 29" fill="none" xmlns="http://www.w3.org/2000/svg">
<path d="M0 26.5833C0 27.918 1.08198 29 2.41667 29H35.5833C36.918 29 38 27.918 38 26.5833C38 25.2486 36.918 24.1667 35.5833 24.1667H2.41667C1.08198 24.1667 0 25.2486 0 26.5833ZM0 14.5C0 15.8347 1.08198 16.9167 2.41667 16.9167H35.5833C36.918 16.9167 38 15.8347 38 14.5C38 13.1653 36.918 12.0833 35.5833 12.0833H2.41667C1.08198 12.0833 0 13.1653 0 14.5ZM2.41667 0C1.08198 0 0 1.08198 0 2.41667C0 3.75135 1.08198 4.83333 2.41667 4.83333H35.5833C36.918 4.83333 38 3.75135 38 2.41667C38 1.08198 36.918 0 35.5833 0H2.41667Z" fill="#2B75B9"/>
</svg>
