<svg width="40" height="34" viewBox="0 0 40 34" fill="none" xmlns="http://www.w3.org/2000/svg">
<path d="M34.5667 14.1866L27.4 3.90165C26.6319 2.79961 25.6088 1.89959 24.4178 1.27828C23.2268 0.656964 21.9033 0.332767 20.56 0.333314H14.1667C12.4767 0.339039 10.828 0.855995 9.43736 1.81623C8.04669 2.77646 6.97913 4.13502 6.375 5.71331L2.92167 14.82C2.0219 15.4309 1.28526 16.2527 0.776004 17.2137C0.266747 18.1747 0.000333968 19.2457 0 20.3333L0 22.8333C0.00136808 23.7934 0.333621 24.7238 0.940785 25.4675C1.54795 26.2113 2.39292 26.7231 3.33333 26.9166V27.8333C3.33333 29.3804 3.94791 30.8641 5.04188 31.9581C6.13584 33.0521 7.61957 33.6666 9.16667 33.6666C10.7138 33.6666 12.1975 33.0521 13.2915 31.9581C14.3854 30.8641 15 29.3804 15 27.8333V27H25V27.8333C25 29.3804 25.6146 30.8641 26.7085 31.9581C27.8025 33.0521 29.2862 33.6666 30.8333 33.6666C32.3804 33.6666 33.8642 33.0521 34.9581 31.9581C36.0521 30.8641 36.6667 29.3804 36.6667 27.8333V26.9166C37.6071 26.7231 38.4521 26.2113 39.0592 25.4675C39.6664 24.7238 39.9986 23.7934 40 22.8333V22C39.9976 20.2993 39.476 18.6399 38.5051 17.2437C37.5342 15.8475 36.1601 14.7809 34.5667 14.1866ZM24.6667 5.80665L30.14 13.6666H18.3333V3.66665H20.56C21.3663 3.66578 22.1609 3.85994 22.876 4.23257C23.5911 4.6052 24.2054 5.14524 24.6667 5.80665ZM9.5 6.89498C9.86183 5.94921 10.5011 5.13487 11.3338 4.55876C12.1666 3.98266 13.1541 3.67169 14.1667 3.66665H15V13.6666H6.92333L9.5 6.89498ZM11.6667 27.8333C11.6667 28.4964 11.4033 29.1322 10.9344 29.6011C10.4656 30.0699 9.82971 30.3333 9.16667 30.3333C8.50362 30.3333 7.86774 30.0699 7.3989 29.6011C6.93006 29.1322 6.66667 28.4964 6.66667 27.8333V27H11.6667V27.8333ZM30.8333 30.3333C30.1703 30.3333 29.5344 30.0699 29.0656 29.6011C28.5967 29.1322 28.3333 28.4964 28.3333 27.8333V27H33.3333V27.8333C33.3333 28.4964 33.0699 29.1322 32.6011 29.6011C32.1323 30.0699 31.4964 30.3333 30.8333 30.3333ZM36.6667 22.8333C36.6667 23.0543 36.5789 23.2663 36.4226 23.4226C36.2663 23.5788 36.0543 23.6666 35.8333 23.6666H4.16667C3.94565 23.6666 3.73369 23.5788 3.57741 23.4226C3.42113 23.2663 3.33333 23.0543 3.33333 22.8333V20.3333C3.33333 19.4493 3.68452 18.6014 4.30964 17.9763C4.93476 17.3512 5.78261 17 6.66667 17H31.6667C32.9927 17 34.2645 17.5268 35.2022 18.4644C36.1399 19.4021 36.6667 20.6739 36.6667 22V22.8333Z" fill="#272727"/>
</svg>
