<svg width="33" height="33" viewBox="0 0 33 33" fill="none" xmlns="http://www.w3.org/2000/svg">
<path d="M12.375 31.1667C13.1344 31.1667 13.75 30.5324 13.75 29.75C13.75 28.9676 13.1344 28.3334 12.375 28.3334C11.6156 28.3334 11 28.9676 11 29.75C11 30.5324 11.6156 31.1667 12.375 31.1667Z" fill="#2B75B9"/>
<path fill-rule="evenodd" clip-rule="evenodd" d="M12.4791 29.793C12.4954 29.7762 12.5 29.7582 12.5 29.75C12.5 29.7419 12.4954 29.7239 12.4791 29.7071C12.471 29.6987 12.4581 29.6886 12.439 29.6803C12.4188 29.6715 12.396 29.6667 12.375 29.6667C12.354 29.6667 12.3312 29.6715 12.311 29.6803C12.2919 29.6886 12.279 29.6987 12.2709 29.7071C12.2546 29.7239 12.25 29.7419 12.25 29.75C12.25 29.7582 12.2546 29.7762 12.2709 29.793C12.279 29.8014 12.2919 29.8115 12.311 29.8198C12.3312 29.8286 12.354 29.8334 12.375 29.8334C12.396 29.8334 12.4188 29.8286 12.439 29.8198C12.4581 29.8115 12.471 29.8014 12.4791 29.793ZM9.5 29.75C9.5 28.1817 10.7453 26.8334 12.375 26.8334C14.0047 26.8334 15.25 28.1817 15.25 29.75C15.25 31.3183 14.0047 32.6667 12.375 32.6667C10.7453 32.6667 9.5 31.3183 9.5 29.75Z" fill="#2B75B9"/>
<path d="M27.5 31.1667C28.2594 31.1667 28.875 30.5324 28.875 29.75C28.875 28.9676 28.2594 28.3334 27.5 28.3334C26.7406 28.3334 26.125 28.9676 26.125 29.75C26.125 30.5324 26.7406 31.1667 27.5 31.1667Z" fill="#2B75B9"/>
<path fill-rule="evenodd" clip-rule="evenodd" d="M27.6041 29.793C27.6204 29.7762 27.625 29.7582 27.625 29.75C27.625 29.7419 27.6204 29.7239 27.6041 29.7071C27.596 29.6987 27.5831 29.6886 27.564 29.6803C27.5438 29.6715 27.521 29.6667 27.5 29.6667C27.479 29.6667 27.4562 29.6715 27.436 29.6803C27.4169 29.6886 27.404 29.6987 27.3959 29.7071C27.3796 29.7239 27.375 29.7419 27.375 29.75C27.375 29.7582 27.3796 29.7762 27.3959 29.793C27.404 29.8014 27.4169 29.8115 27.436 29.8198C27.4562 29.8286 27.479 29.8334 27.5 29.8334C27.521 29.8334 27.5438 29.8286 27.564 29.8198C27.5831 29.8115 27.596 29.8014 27.6041 29.793ZM24.625 29.75C24.625 28.1817 25.8703 26.8334 27.5 26.8334C29.1297 26.8334 30.375 28.1817 30.375 29.75C30.375 31.3183 29.1297 32.6667 27.5 32.6667C25.8703 32.6667 24.625 31.3183 24.625 29.75Z" fill="#2B75B9"/>
<path fill-rule="evenodd" clip-rule="evenodd" d="M-1 1C-1 -0.10457 -0.10457 -1 1 -1H6.45455C7.418 -1 8.24452 -0.313098 8.42079 0.634094L9.48135 6.33315H31C31.5915 6.33315 32.1527 6.595 32.5327 7.04831C32.9127 7.50162 33.0726 8.09989 32.9693 8.68233L30.7875 20.9874L30.7849 21.0014C30.5814 22.1033 30.0193 23.1218 29.1625 23.8637C28.308 24.6035 27.2159 25.0171 26.0733 24.9995H12.854C11.7114 25.0171 10.6193 24.6035 9.76481 23.8637C8.9084 23.1222 8.34635 22.1042 8.14263 21.0029C8.14253 21.0024 8.14244 21.0019 8.14235 21.0014L5.86678 8.77334C5.8561 8.72578 5.84711 8.67758 5.83988 8.6288L4.7924 3H1C-0.10457 3 -1 2.10457 -1 1ZM10.2257 10.3332L12.0758 20.275C12.1217 20.5236 12.2427 20.7181 12.383 20.8396C12.5199 20.9581 12.6664 21.0025 12.7952 20.9999C12.8089 20.9996 12.8226 20.9995 12.8364 20.9995H26.0909C26.1046 20.9995 26.1184 20.9996 26.1321 20.9999C26.2609 21.0025 26.4074 20.9581 26.5442 20.8396C26.6836 20.719 26.8038 20.5264 26.8504 20.2804L28.6142 10.3332H10.2257Z" fill="#2B75B9"/>
</svg>
