<svg width="26" height="20" viewBox="0 0 26 20" fill="none" xmlns="http://www.w3.org/2000/svg">
<path d="M8.91655 19.2916C8.69432 19.2916 8.48599 19.2566 8.29155 19.1866C8.0971 19.1166 7.91655 18.9988 7.74988 18.8333L0.583213 11.6666C0.277657 11.3611 0.131546 10.965 0.144879 10.4783C0.158213 9.99162 0.318212 9.59607 0.624879 9.29162C0.930434 8.98607 1.31932 8.83329 1.79155 8.83329C2.26377 8.83329 2.65266 8.98607 2.95821 9.29162L8.91655 15.25L23.0415 1.12496C23.3471 0.819404 23.7432 0.666626 24.2299 0.666626C24.7165 0.666626 25.1121 0.819404 25.4165 1.12496C25.7221 1.43051 25.8749 1.82663 25.8749 2.31329C25.8749 2.79996 25.7221 3.19552 25.4165 3.49996L10.0832 18.8333C9.91654 19 9.73599 19.1183 9.54155 19.1883C9.3471 19.2583 9.13877 19.2927 8.91655 19.2916Z" fill="#2B75B9"/>
</svg>
