<svg width="26" height="26" viewBox="0 0 26 26" fill="none" xmlns="http://www.w3.org/2000/svg">
<path fill-rule="evenodd" clip-rule="evenodd" d="M4.25 3.25C3.98478 3.25 3.73043 3.35536 3.54289 3.54289C3.35536 3.73043 3.25 3.98478 3.25 4.25V20.6287L5.68934 18.1893C5.97064 17.908 6.35218 17.75 6.75 17.75H21.75C22.0152 17.75 22.2696 17.6446 22.4571 17.4571C22.6446 17.2696 22.75 17.0152 22.75 16.75V4.25C22.75 3.98478 22.6446 3.73043 22.4571 3.54289C22.2696 3.35536 22.0152 3.25 21.75 3.25H4.25ZM1.42157 1.42157C2.17172 0.671427 3.18913 0.25 4.25 0.25H21.75C22.8109 0.25 23.8283 0.671427 24.5784 1.42157C25.3286 2.17172 25.75 3.18913 25.75 4.25V16.75C25.75 17.8109 25.3286 18.8283 24.5784 19.5784C23.8283 20.3286 22.8109 20.75 21.75 20.75H7.37132L2.81066 25.3107C2.38166 25.7397 1.73649 25.868 1.17597 25.6358C0.615463 25.4036 0.25 24.8567 0.25 24.25V4.25C0.25 3.18913 0.671427 2.17172 1.42157 1.42157Z" fill="#2B75B9"/>
</svg>
