<svg width="40" height="40" viewBox="0 0 40 40" fill="none" xmlns="http://www.w3.org/2000/svg">
<path d="M25.8567 15.2527C26.1966 15.0596 26.4037 14.6918 26.3681 14.3025C25.918 9.37511 23.9455 4.59286 20.3928 0.722152C20.0194 0.315273 19.3825 0.315349 19.0081 0.721432C15.4152 4.6193 13.3547 9.39576 12.8124 14.2862C12.7683 14.6836 12.9785 15.0622 13.327 15.2581C15.3171 16.3772 17.1758 17.7484 18.8522 19.3615C19.2596 19.7535 19.9088 19.755 20.3177 19.3646C21.998 17.7603 23.8614 16.3862 25.8567 15.2527ZM19.6813 6.24707C20.915 8.26415 21.7767 10.5162 22.2271 12.8662C21.3067 13.4537 20.445 14.1 19.6029 14.7854C18.7804 14.1196 17.8992 13.4733 16.9984 12.8858C17.4879 10.5358 18.3888 8.28374 19.6813 6.24707ZM19.5834 26.3396C17.9775 23.8917 15.9409 21.7571 13.5909 20.0729C13.3363 19.8967 13.0621 19.7596 12.8075 19.5637C13.0621 19.74 13.3363 19.8967 13.5713 20.0533C10.5162 17.8442 6.90958 16.3622 2.99213 15.8577C1.34885 15.6461 -0.0196361 17.0153 0.183361 18.6597C1.30532 27.7481 7.47023 35.2158 15.7254 38.1679C16.9592 38.6183 18.2517 38.9512 19.5834 39.1667C20.915 38.9317 22.1879 38.5987 23.4413 38.1679C31.6965 35.2158 37.8614 27.7481 38.9834 18.6597C39.1864 17.0153 37.8179 15.6462 36.1747 15.8583C29.2461 16.7527 23.2723 20.7118 19.5834 26.3396ZM22.1684 34.4667C21.3067 34.7604 20.445 34.9954 19.5638 35.1912C18.7021 35.015 17.86 34.78 17.0571 34.4862C10.6142 32.1754 5.89461 26.6725 4.42586 20.0925C6.58003 20.6017 8.63628 21.4829 10.5359 22.6971L10.4967 22.7167C10.7513 22.8929 11.0059 23.0692 11.2604 23.2062L11.3975 23.2846C13.3363 24.6946 15.0009 26.4375 16.3129 28.4742L19.5834 33.4875L22.8538 28.4937C24.205 26.4375 25.8892 24.675 27.8084 23.2846L27.9454 23.1867C28.1217 23.0887 28.2979 22.9712 28.4742 22.8537L28.4546 22.8146C30.3738 21.5417 32.5084 20.6017 34.7409 20.0729C33.2721 26.6725 28.5721 32.1754 22.1684 34.4667ZM13.6888 20.1317C13.6496 20.1121 13.6104 20.0729 13.5909 20.0533C13.5909 20.0533 13.6104 20.0533 13.6104 20.0729C13.63 20.0925 13.6496 20.1121 13.6888 20.1317Z" fill="#272727"/>
</svg>
