<svg width="36" height="28" viewBox="0 0 36 28" fill="none" xmlns="http://www.w3.org/2000/svg">
<path fill-rule="evenodd" clip-rule="evenodd" d="M7.07213 18.7389C8.02544 17.7856 9.3184 17.25 10.6666 17.25C12.0148 17.25 13.3077 17.7856 14.261 18.7389C15.2144 19.6922 15.7499 20.9851 15.7499 22.3333C15.7499 23.6815 15.2144 24.9745 14.261 25.9278C13.3077 26.8811 12.0148 27.4167 10.6666 27.4167C9.3184 27.4167 8.02544 26.8811 7.07213 25.9278C6.11882 24.9745 5.58325 23.6815 5.58325 22.3333C5.58325 20.9851 6.11882 19.6922 7.07213 18.7389ZM10.6666 20.75C10.2467 20.75 9.84393 20.9168 9.547 21.2137C9.25007 21.5107 9.08325 21.9134 9.08325 22.3333C9.08325 22.7533 9.25007 23.156 9.547 23.4529C9.84393 23.7499 10.2467 23.9167 10.6666 23.9167C11.0865 23.9167 11.4892 23.7499 11.7862 23.4529C12.0831 23.156 12.2499 22.7533 12.2499 22.3333C12.2499 21.9134 12.0831 21.5107 11.7862 21.2137C11.4892 20.9168 11.0865 20.75 10.6666 20.75ZM23.7388 18.7389C24.6921 17.7856 25.9851 17.25 27.3333 17.25C28.6814 17.25 29.9744 17.7856 30.9277 18.7389C31.881 19.6922 32.4166 20.9851 32.4166 22.3333C32.4166 23.6815 31.881 24.9745 30.9277 25.9278C29.9744 26.8811 28.6814 27.4167 27.3333 27.4167C25.9851 27.4167 24.6921 26.8811 23.7388 25.9278C22.7855 24.9745 22.2499 23.6815 22.2499 22.3333C22.2499 20.9851 22.7855 19.6922 23.7388 18.7389ZM27.3333 20.75C26.9133 20.75 26.5106 20.9168 26.2137 21.2137C25.9167 21.5107 25.7499 21.9134 25.7499 22.3333C25.7499 22.7533 25.9167 23.156 26.2137 23.4529C26.5106 23.7499 26.9133 23.9167 27.3333 23.9167C27.7532 23.9167 28.1559 23.7499 28.4528 23.4529C28.7498 23.156 28.9166 22.7533 28.9166 22.3333C28.9166 21.9134 28.7498 21.5107 28.4528 21.2137C28.1559 20.9168 27.7532 20.75 27.3333 20.75Z" fill="#2B75B9"/>
<path fill-rule="evenodd" clip-rule="evenodd" d="M0.583252 2.33337C0.583252 1.36688 1.36675 0.583374 2.33325 0.583374H20.6666C21.6051 0.583374 22.3711 1.32224 22.4146 2.25004H28.9999C29.6146 2.25004 30.1843 2.57256 30.5005 3.09967L35.5005 11.433C35.6637 11.705 35.7499 12.0162 35.7499 12.3334V22.3334C35.7499 23.2999 34.9664 24.0834 33.9999 24.0834H30.6666C29.7001 24.0834 28.9166 23.2999 28.9166 22.3334C28.9166 21.3669 29.7001 20.5834 30.6666 20.5834H32.2499V14.0834H22.4166V20.5834H23.9999C24.9664 20.5834 25.7499 21.3669 25.7499 22.3334C25.7499 23.2999 24.9664 24.0834 23.9999 24.0834H13.9999C13.0334 24.0834 12.2499 23.2999 12.2499 22.3334C12.2499 21.3669 13.0334 20.5834 13.9999 20.5834H18.9166V4.08337H2.33325C1.36675 4.08337 0.583252 3.29987 0.583252 2.33337ZM22.4166 5.75004V10.5834H30.9091L28.0091 5.75004H22.4166ZM2.24992 9.00004C2.24992 8.03354 3.03342 7.25004 3.99992 7.25004H10.6666C11.6331 7.25004 12.4166 8.03354 12.4166 9.00004C12.4166 9.96654 11.6331 10.75 10.6666 10.75H3.99992C3.03342 10.75 2.24992 9.96654 2.24992 9.00004ZM3.99992 13.9167C4.96642 13.9167 5.74992 14.7002 5.74992 15.6667V20.5834H7.33325C8.29975 20.5834 9.08325 21.3669 9.08325 22.3334C9.08325 23.2999 8.29975 24.0834 7.33325 24.0834H3.99992C3.03342 24.0834 2.24992 23.2999 2.24992 22.3334V15.6667C2.24992 14.7002 3.03342 13.9167 3.99992 13.9167Z" fill="#2B75B9"/>
</svg>
