<svg width="40" height="32" viewBox="0 0 40 32" fill="none" xmlns="http://www.w3.org/2000/svg">
<path d="M31.6667 0H8.33333C6.12401 0.00264643 4.00593 0.88147 2.4437 2.4437C0.88147 4.00593 0.00264643 6.12401 0 8.33333L0 18.3333C0.00264643 20.5427 0.88147 22.6607 2.4437 24.223C4.00593 25.7852 6.12401 26.664 8.33333 26.6667H18.3333V28.3333H13.3333C12.8913 28.3333 12.4674 28.5089 12.1548 28.8215C11.8423 29.1341 11.6667 29.558 11.6667 30C11.6667 30.442 11.8423 30.866 12.1548 31.1785C12.4674 31.4911 12.8913 31.6667 13.3333 31.6667H26.6667C27.1087 31.6667 27.5326 31.4911 27.8452 31.1785C28.1577 30.866 28.3333 30.442 28.3333 30C28.3333 29.558 28.1577 29.1341 27.8452 28.8215C27.5326 28.5089 27.1087 28.3333 26.6667 28.3333H21.6667V26.6667H31.6667C33.876 26.664 35.9941 25.7852 37.5563 24.223C39.1185 22.6607 39.9974 20.5427 40 18.3333V8.33333C39.9974 6.12401 39.1185 4.00593 37.5563 2.4437C35.9941 0.88147 33.876 0.00264643 31.6667 0ZM36.6667 18.3333C36.6667 19.6594 36.1399 20.9312 35.2022 21.8689C34.2645 22.8066 32.9927 23.3333 31.6667 23.3333H8.33333C7.00725 23.3333 5.73548 22.8066 4.7978 21.8689C3.86012 20.9312 3.33333 19.6594 3.33333 18.3333V8.33333C3.33333 7.00725 3.86012 5.73548 4.7978 4.7978C5.73548 3.86012 7.00725 3.33333 8.33333 3.33333H31.6667C32.9927 3.33333 34.2645 3.86012 35.2022 4.7978C36.1399 5.73548 36.6667 7.00725 36.6667 8.33333V18.3333Z" fill="#272727"/>
</svg>
