<svg width="38" height="26" viewBox="0 0 38 26" fill="none" xmlns="http://www.w3.org/2000/svg">
<path d="M18.9998 3.83333C22.0644 3.82314 25.0696 4.67797 27.67 6.29954C30.2704 7.92111 32.3605 10.2436 33.6998 13C30.9498 18.6167 25.3332 22.1667 18.9998 22.1667C12.6665 22.1667 7.04984 18.6167 4.29984 13C5.6392 10.2436 7.72922 7.92111 10.3296 6.29954C12.93 4.67797 15.9353 3.82314 18.9998 3.83333ZM18.9998 0.5C10.6665 0.5 3.54984 5.68333 0.666504 13C3.54984 20.3167 10.6665 25.5 18.9998 25.5C27.3332 25.5 34.4498 20.3167 37.3332 13C34.4498 5.68333 27.3332 0.5 18.9998 0.5ZM18.9998 8.83333C20.1049 8.83333 21.1647 9.27232 21.9461 10.0537C22.7275 10.8351 23.1665 11.8949 23.1665 13C23.1665 14.1051 22.7275 15.1649 21.9461 15.9463C21.1647 16.7277 20.1049 17.1667 18.9998 17.1667C17.8948 17.1667 16.835 16.7277 16.0536 15.9463C15.2722 15.1649 14.8332 14.1051 14.8332 13C14.8332 11.8949 15.2722 10.8351 16.0536 10.0537C16.835 9.27232 17.8948 8.83333 18.9998 8.83333ZM18.9998 5.5C14.8665 5.5 11.4998 8.86667 11.4998 13C11.4998 17.1333 14.8665 20.5 18.9998 20.5C23.1332 20.5 26.4998 17.1333 26.4998 13C26.4998 8.86667 23.1332 5.5 18.9998 5.5Z" fill="#2B75B9"/>
</svg>
