<svg width="28" height="25" viewBox="0 0 28 25" fill="none" xmlns="http://www.w3.org/2000/svg">
<path fill-rule="evenodd" clip-rule="evenodd" d="M16.5466 0.877955C17.5098 0.476161 18.5426 0.269226 19.5859 0.269226C20.6291 0.269226 21.6619 0.476161 22.6251 0.877955C23.5881 1.27965 24.4625 1.8681 25.1984 2.60922C25.9348 3.3502 26.5185 4.22944 26.9165 5.19645C27.3145 6.16344 27.5192 7.19955 27.5192 8.24568C27.5192 9.29182 27.3145 10.3279 26.9165 11.2949C26.5185 12.2618 25.935 13.141 25.1987 13.8819C25.1986 13.882 25.1988 13.8818 25.1987 13.8819L14.8619 24.2879C14.5804 24.5714 14.1973 24.7308 13.7977 24.7308C13.3982 24.7308 13.0151 24.5714 12.7336 24.2879L2.39681 13.8819C0.910256 12.3854 0.0769043 10.3578 0.0769043 8.24568C0.0769043 6.13358 0.910256 4.10598 2.39681 2.60947C3.88371 1.11261 5.9025 0.269856 8.00964 0.269856C10.1168 0.269856 12.1356 1.11261 13.6225 2.60947L13.7977 2.78592L13.9728 2.60972C13.9729 2.60963 13.9727 2.6098 13.9728 2.60972C14.7088 1.86849 15.5835 1.2797 16.5466 0.877955ZM19.5859 3.26923C18.9395 3.26923 18.2992 3.39742 17.7015 3.64673C17.1038 3.89606 16.5601 4.26176 16.1017 4.72345L14.8619 5.97147C14.5804 6.25494 14.1973 6.41436 13.7977 6.41436C13.3982 6.41436 13.0151 6.25494 12.7336 5.97147L11.4941 4.7237C10.5682 3.79164 9.31464 3.26986 8.00964 3.26986C6.70464 3.26986 5.45105 3.79164 4.5252 4.7237C3.59902 5.65609 3.0769 6.92279 3.0769 8.24568C3.0769 9.56857 3.59902 10.8353 4.5252 11.7677L13.7977 21.1023L23.0703 11.7677C23.5289 11.3062 23.8935 10.7575 24.1423 10.1531C24.391 9.54867 24.5192 8.9005 24.5192 8.24568C24.5192 7.59087 24.391 6.9427 24.1423 6.33829C23.8935 5.73391 23.5292 5.18543 23.0705 4.72395C22.6121 4.26226 22.0679 3.89606 21.4702 3.64673C20.8725 3.39742 20.2322 3.26923 19.5859 3.26923Z" fill="#2B75B9"/>
</svg>
