<svg width="40" height="34" viewBox="0 0 40 34" fill="none" xmlns="http://www.w3.org/2000/svg">
<path d="M31.6667 0.333313H8.33333C3.73833 0.333313 0 4.07165 0 8.66665V32C0 32.9216 0.746667 33.6666 1.66667 33.6666C2.58667 33.6666 3.33333 32.9216 3.33333 32V28.6666H36.6667V32C36.6667 32.9216 37.4117 33.6666 38.3333 33.6666C39.255 33.6666 40 32.9216 40 32V8.66665C40 4.07165 36.2617 0.333313 31.6667 0.333313ZM8.33333 3.66665H31.6667C34.4233 3.66665 36.6667 5.90998 36.6667 8.66665V18.6666H33.3333C33.3333 14.99 30.3433 12 26.6667 12H25C23.01 12 21.2233 12.8766 20 14.2616C18.7767 12.875 16.99 12 15 12H13.3333C9.65667 12 6.66667 14.99 6.66667 18.6666H3.33333V8.66665C3.33333 5.90998 5.57667 3.66665 8.33333 3.66665ZM21.6667 18.6666C21.6667 16.8283 23.1617 15.3333 25 15.3333H26.6667C28.505 15.3333 30 16.8283 30 18.6666H21.6667ZM10 18.6666C10 16.8283 11.495 15.3333 13.3333 15.3333H15C16.8383 15.3333 18.3333 16.8283 18.3333 18.6666H10ZM3.33333 25.3333V22H36.6667V25.3333H3.33333Z" fill="#272727"/>
</svg>
