<svg width="40" height="30" viewBox="0 0 40 30" fill="none" xmlns="http://www.w3.org/2000/svg">
<path d="M39.9453 23.2558L37.676 7.30786C37.093 3.20637 33.5745 0.166687 29.4314 0.166687H10.5687C6.42553 0.166687 2.90699 3.20637 2.32404 7.30786L0.0546858 23.2558C-0.403349 26.462 2.0742 29.3143 5.30126 29.3143C6.71701 29.3143 8.04947 28.7522 9.04882 27.7529L13.7541 23.0684H26.2459L30.9304 27.7529C31.9297 28.7522 33.283 29.3143 34.6779 29.3143C37.9258 29.3143 40.4034 26.462 39.9453 23.2558ZM35.5732 24.7548C35.4066 24.9422 35.136 25.1504 34.6987 25.1504C34.3865 25.1504 34.095 25.0255 33.8868 24.8173L27.974 18.9045H12.026L6.11323 24.8173C5.90504 25.0255 5.61356 25.1504 5.30126 25.1504C4.86405 25.1504 4.59339 24.9422 4.42683 24.7548C4.26028 24.5674 4.09372 24.276 4.15618 23.8387L6.42553 7.89081C6.73783 5.8713 8.5075 4.33064 10.5687 4.33064H29.4314C31.4925 4.33064 33.2622 5.8713 33.5537 7.91163L35.823 23.8596C35.8855 24.276 35.7189 24.5674 35.5732 24.7548Z" fill="#272727"/>
<path d="M13.7541 6.4126H11.6721V10.5765H7.50818V12.6585H11.6721V16.8225H13.7541V12.6585H17.9181V10.5765H13.7541V6.4126Z" fill="#272727"/>
<path d="M30.4099 16.8225C31.5597 16.8225 32.4918 15.8903 32.4918 14.7405C32.4918 13.5906 31.5597 12.6585 30.4099 12.6585C29.26 12.6585 28.3279 13.5906 28.3279 14.7405C28.3279 15.8903 29.26 16.8225 30.4099 16.8225Z" fill="#272727"/>
<path d="M26.2459 10.5765C27.3958 10.5765 28.3279 9.64442 28.3279 8.49457C28.3279 7.34473 27.3958 6.4126 26.2459 6.4126C25.0961 6.4126 24.1639 7.34473 24.1639 8.49457C24.1639 9.64442 25.0961 10.5765 26.2459 10.5765Z" fill="#272727"/>
</svg>
