<svg width="28" height="28" viewBox="0 0 28 28" fill="none" xmlns="http://www.w3.org/2000/svg">
<path fill-rule="evenodd" clip-rule="evenodd" d="M7.75 2.5C4.8505 2.5 2.5 4.8505 2.5 7.75V20.25C2.5 23.1495 4.8505 25.5 7.75 25.5H20.25C23.1495 25.5 25.5 23.1495 25.5 20.25V7.75C25.5 4.8505 23.1495 2.5 20.25 2.5H7.75ZM0.5 7.75C0.5 3.74594 3.74594 0.5 7.75 0.5H20.25C24.2541 0.5 27.5 3.74594 27.5 7.75V20.25C27.5 24.2541 24.2541 27.5 20.25 27.5H7.75C3.74594 27.5 0.5 24.2541 0.5 20.25V7.75Z" fill="white"/>
<path fill-rule="evenodd" clip-rule="evenodd" d="M14.6405 9.9892C13.8082 9.86578 12.9582 10.0079 12.2114 10.3954C11.4646 10.7829 10.859 11.396 10.4808 12.1476C10.1025 12.8991 9.97085 13.7507 10.1045 14.5814C10.2382 15.4121 10.6304 16.1794 11.2253 16.7744C11.8202 17.3693 12.5876 17.7615 13.4182 17.8951C14.2489 18.0288 15.1006 17.8971 15.8521 17.5189C16.6036 17.1406 17.2167 16.535 17.6042 15.7882C17.9917 15.0414 18.1339 14.1914 18.0105 13.3592C17.8846 12.5103 17.489 11.7243 16.8821 11.1175C16.2753 10.5107 15.4894 10.1151 14.6405 9.9892ZM11.2903 8.62019C12.4105 8.03894 13.6854 7.82571 14.9338 8.01083C16.2072 8.19966 17.3861 8.79302 18.2964 9.70329C19.2066 10.6136 19.8 11.7924 19.9888 13.0658C20.1739 14.3142 19.9607 15.5892 19.3795 16.7094C18.7982 17.8295 17.8785 18.7379 16.7513 19.3053C15.624 19.8727 14.3465 20.0702 13.1005 19.8697C11.8545 19.6692 10.7035 19.081 9.81108 18.1886C8.91869 17.2962 8.33042 16.1451 8.12992 14.8991C7.92942 13.6532 8.12692 12.3757 8.69431 11.2484C9.2617 10.1211 10.1701 9.20144 11.2903 8.62019Z" fill="white"/>
</svg>
