<svg width="40" height="40" viewBox="0 0 40 40" fill="none" xmlns="http://www.w3.org/2000/svg">
<path d="M40 19.1667C39.9991 18.0173 39.6587 16.8938 39.0215 15.9373C38.3843 14.9807 37.4787 14.2337 36.4184 13.79C35.7417 9.92729 33.7246 6.42687 30.7219 3.90448C27.7192 1.38208 23.9233 -0.000732422 20.0017 -0.000732422C16.0801 -0.000732422 12.2842 1.38208 9.28149 3.90448C6.2788 6.42687 4.26172 9.92729 3.58504 13.79C2.37504 14.2991 1.37212 15.2014 0.738446 16.351C0.104773 17.5007 -0.122605 18.8305 0.0930792 20.1253C0.308764 21.4202 0.954901 22.6045 1.92701 23.4867C2.89912 24.3688 4.14036 24.8973 5.45004 24.9867C6.31085 26.8135 7.4783 28.4792 8.9017 29.9117C6.81601 32.189 5.49236 35.0601 5.11504 38.125C5.08772 38.3423 5.10348 38.5628 5.16141 38.7739C5.21934 38.985 5.31831 39.1827 5.45265 39.3556C5.587 39.5285 5.75409 39.6732 5.94439 39.7815C6.13468 39.8898 6.34445 39.9595 6.5617 39.9867C6.63028 39.9951 6.69928 39.9995 6.76837 40C7.17398 39.9996 7.56551 39.8512 7.86956 39.5827C8.17362 39.3143 8.36933 38.9441 8.42004 38.5417C8.72221 36.1253 9.78105 33.8664 11.445 32.0884C13.9269 33.9204 16.9159 34.9376 20 35C23.0751 34.9371 26.0553 33.9241 28.5317 32.1C30.1885 33.875 31.243 36.1275 31.545 38.5367C31.5954 38.9394 31.7909 39.31 32.095 39.5788C32.3991 39.8476 32.7908 39.9962 33.1967 39.9967C33.2663 39.9963 33.3359 39.9919 33.405 39.9834C33.8435 39.9284 34.2422 39.7016 34.5134 39.3529C34.7847 39.0041 34.9064 38.5618 34.8517 38.1234C34.4771 35.0662 33.16 32.2014 31.0834 29.9267C32.5146 28.4898 33.6884 26.8177 34.5534 24.9834C36.0296 24.8853 37.4134 24.2299 38.4247 23.15C39.436 22.0701 39.9991 20.6462 40 19.1667ZM33.7467 21.6217C33.358 21.5505 32.9566 21.6207 32.6151 21.8197C32.2737 22.0187 32.0147 22.3334 31.885 22.7067C30.3584 27.0367 25.2167 31.6667 20 31.6667C14.7834 31.6667 9.6417 27.0334 8.11504 22.7034C7.9851 22.3302 7.72607 22.0158 7.3847 21.8168C7.04333 21.6179 6.64208 21.5475 6.25337 21.6184C6.11486 21.6455 5.97442 21.6617 5.83337 21.6667C5.21468 21.6593 4.62071 21.4227 4.16634 21.0028C3.71197 20.5828 3.42948 20.0093 3.3735 19.3931C3.31752 18.7769 3.49203 18.1618 3.86328 17.6668C4.23453 17.1719 4.77614 16.8321 5.38337 16.7134C5.73773 16.6491 6.06175 16.4718 6.30691 16.208C6.55208 15.9442 6.70521 15.6081 6.74337 15.25C6.96596 13.1189 7.70138 11.0733 8.88674 9.28833C10.0721 7.50332 11.6721 6.03195 13.55 5.00003C13.2771 6.0602 13.2646 7.17062 13.5134 8.2367C13.8522 9.64652 14.6415 10.9074 15.7615 11.8283C16.8815 12.7492 18.2712 13.2798 19.7199 13.3397C21.1687 13.3996 22.5974 12.9856 23.7897 12.1604C24.9819 11.3351 25.8726 10.1437 26.3267 8.7667C26.4007 8.52208 26.4162 8.26347 26.3717 8.01178C26.3273 7.7601 26.2242 7.52241 26.0709 7.31795C25.9175 7.11348 25.7182 6.94799 25.489 6.83485C25.2599 6.72171 25.0073 6.66411 24.7517 6.6667H24.5C24.1935 6.67674 23.8981 6.78406 23.6566 6.97312C23.4151 7.16219 23.24 7.42319 23.1567 7.71836C22.963 8.30105 22.612 8.8189 22.1427 9.21478C21.6733 9.61066 21.1036 9.86919 20.4966 9.96185C19.8896 10.0545 19.2688 9.9777 18.7027 9.73989C18.1365 9.50207 17.6471 9.1125 17.2883 8.61416C16.9296 8.11581 16.7155 7.52805 16.6696 6.91571C16.6237 6.30338 16.7479 5.69028 17.0284 5.14404C17.3089 4.5978 17.7348 4.13965 18.2592 3.82014C18.7836 3.50064 19.386 3.33218 20 3.33336C23.2931 3.32549 26.4719 4.53987 28.9209 6.74134C31.37 8.94282 32.9149 11.9748 33.2567 15.25C33.2949 15.6081 33.448 15.9442 33.6932 16.208C33.9383 16.4718 34.2623 16.6491 34.6167 16.7134C35.2239 16.8321 35.7655 17.1719 36.1368 17.6668C36.508 18.1618 36.6826 18.7769 36.6266 19.3931C36.5706 20.0093 36.2881 20.5828 35.8337 21.0028C35.3794 21.4227 34.7854 21.6593 34.1667 21.6667C34.0257 21.6628 33.8853 21.6477 33.7467 21.6217Z" fill="#272727"/>
<path d="M15.8334 21.6666C17.2141 21.6666 18.3334 20.5473 18.3334 19.1666C18.3334 17.7859 17.2141 16.6666 15.8334 16.6666C14.4527 16.6666 13.3334 17.7859 13.3334 19.1666C13.3334 20.5473 14.4527 21.6666 15.8334 21.6666Z" fill="#272727"/>
<path d="M24.1666 21.6666C25.5473 21.6666 26.6666 20.5473 26.6666 19.1666C26.6666 17.7859 25.5473 16.6666 24.1666 16.6666C22.7859 16.6666 21.6666 17.7859 21.6666 19.1666C21.6666 20.5473 22.7859 21.6666 24.1666 21.6666Z" fill="#272727"/>
</svg>
