<svg width="30" height="24" viewBox="0 0 30 24" fill="none" xmlns="http://www.w3.org/2000/svg">
<path d="M26.25 7V5.75L22.5 8.25L18.75 5.75V7L22.5 9.5L26.25 7ZM27.5 0.75H2.5C1.125 0.75 0 1.875 0 3.25V20.75C0 22.125 1.125 23.25 2.5 23.25H27.5C28.875 23.25 29.9875 22.125 29.9875 20.75L30 3.25C30 1.875 28.875 0.75 27.5 0.75ZM10 4.5C12.075 4.5 13.75 6.175 13.75 8.25C13.75 10.325 12.075 12 10 12C7.925 12 6.25 10.325 6.25 8.25C6.25 6.175 7.925 4.5 10 4.5ZM17.5 19.5H2.5V18.25C2.5 15.75 7.5 14.375 10 14.375C12.5 14.375 17.5 15.75 17.5 18.25V19.5ZM27.5 12H17.5V4.5H27.5V12Z" fill="#2B75B9"/>
</svg>
