<svg width="38" height="40" viewBox="0 0 38 40" fill="none" xmlns="http://www.w3.org/2000/svg">
<path d="M22.1667 21.6667C21.6722 21.6667 21.1889 21.5201 20.7777 21.2454C20.3666 20.9707 20.0462 20.5802 19.857 20.1234C19.6677 19.6666 19.6182 19.1639 19.7147 18.679C19.8112 18.194 20.0493 17.7486 20.3989 17.399C20.7485 17.0493 21.194 16.8112 21.6789 16.7148C22.1639 16.6183 22.6666 16.6678 23.1234 16.857C23.5802 17.0462 23.9706 17.3667 24.2453 17.7778C24.52 18.1889 24.6667 18.6723 24.6667 19.1667C24.6667 19.8298 24.4033 20.4656 23.9344 20.9345C23.4656 21.4033 22.8297 21.6667 22.1667 21.6667ZM34.4183 13.7901C33.7492 9.98297 31.7777 6.52683 28.8411 4.01325C25.9045 1.49968 22.1855 0.0849801 18.3208 0.0113287C14.4561 -0.0623227 10.6859 1.20965 7.6557 3.60952C4.62549 6.00938 2.52365 9.38789 1.71 13.1667L0.5 20.0001H3C5.99259 19.9816 8.94371 19.2985 11.64 18.0001C11.4426 18.3575 11.3372 18.7584 11.3333 19.1667C11.3311 19.6521 11.4702 20.1277 11.7337 20.5354C11.9972 20.9431 12.3737 21.2653 12.8172 21.4626C13.2607 21.6599 13.7521 21.7238 14.2313 21.6465C14.7106 21.5692 15.1569 21.3541 15.5159 21.0274C15.875 20.7006 16.1311 20.2765 16.2531 19.8066C16.3751 19.3368 16.3576 18.8416 16.2029 18.3815C16.0481 17.9213 15.7628 17.5162 15.3817 17.2156C15.0006 16.9149 14.5402 16.7318 14.0567 16.6884C17.6126 14.4698 20.6241 11.4799 22.8683 7.94005C21.8869 7.39523 20.8201 7.02102 19.7133 6.83338C17.15 10.6317 11.695 15.9384 4.48833 16.5984L4.98 13.8167C5.6606 10.7283 7.41678 7.98243 9.93496 6.0693C12.4531 4.15617 15.5693 3.2004 18.7271 3.37265C21.8849 3.5449 24.8787 4.83396 27.1738 7.00964C29.4689 9.18532 30.916 12.106 31.2567 15.25L31.3867 16.4917L32.6167 16.7134C33.2239 16.8321 33.7655 17.1719 34.1368 17.6668C34.508 18.1618 34.6825 18.7769 34.6265 19.3931C34.5706 20.0093 34.2881 20.5828 33.8337 21.0028C33.3793 21.4228 32.7854 21.6593 32.1667 21.6667C32.0233 21.6667 30.355 21.3751 30.355 21.3751L29.885 22.7084C28.3583 27.0351 23.2167 31.6667 18 31.6667C12.9567 31.6667 7.96167 27.3017 6.265 23.0784C5.18428 23.2424 4.09307 23.3276 3 23.3334H2.8C2.90333 23.6351 2.97667 23.8334 3 23.8984C4.58421 27.8986 7.53746 31.2062 11.3333 33.2317V40.0001H14.6667V34.5534C15.7542 34.8436 16.8744 34.9937 18 35.0001C19.1253 34.9954 20.2454 34.8475 21.3333 34.5601V40.0001H24.6667V33.2567C28.1069 31.4073 30.8691 28.5108 32.5533 24.9867C33.863 24.8974 35.1043 24.3689 36.0764 23.4867C37.0485 22.6045 37.6946 21.4202 37.9103 20.1254C38.126 18.8305 37.8986 17.5007 37.2649 16.3511C36.6313 15.2014 35.6283 14.2991 34.4183 13.7901Z" fill="#272727"/>
</svg>
