<svg width="26" height="28" viewBox="0 0 26 28" fill="none" xmlns="http://www.w3.org/2000/svg">
<path fill-rule="evenodd" clip-rule="evenodd" d="M3.24226 5.30982C3.24207 5.3098 3.24267 5.30748 3.2446 5.30289C3.24341 5.30753 3.24244 5.30983 3.24226 5.30982ZM3.27559 5.25C3.31471 5.19396 3.39663 5.0992 3.56254 4.96845C3.94395 4.66786 4.58882 4.33157 5.51939 4.02137C7.36486 3.40622 10.0098 3 13 3C15.9902 3 18.6351 3.40622 20.4806 4.02137C21.4112 4.33157 22.056 4.66786 22.4375 4.96845C22.6034 5.0992 22.6853 5.19396 22.7244 5.24999C22.6853 5.30603 22.6034 5.4008 22.4375 5.53155C22.056 5.83214 21.4112 6.16843 20.4806 6.47863C18.6351 7.09378 15.9902 7.5 13 7.5C10.0098 7.5 7.36486 7.09378 5.51939 6.47863C4.58882 6.16843 3.94395 5.83214 3.56254 5.53155C3.39663 5.4008 3.31471 5.30604 3.27559 5.25ZM22.7577 5.30982C22.7576 5.30983 22.7566 5.30753 22.7554 5.30289C22.7573 5.30749 22.7579 5.30981 22.7577 5.30982ZM22.7554 5.19711C22.7566 5.19247 22.7576 5.19017 22.7577 5.19018C22.7579 5.1902 22.7573 5.19252 22.7554 5.19711ZM3.2446 5.19711C3.24267 5.19252 3.24207 5.1902 3.24226 5.19018C3.24244 5.19017 3.24341 5.19247 3.2446 5.19711ZM4.57071 1.17532C6.79694 0.433247 9.77704 0 13 0C16.223 0 19.2031 0.433247 21.4293 1.17532C22.5346 1.54375 23.5372 2.01551 24.2944 2.61221C25.0346 3.19559 25.75 4.07563 25.75 5.25C25.75 6.42437 25.0346 7.30441 24.2944 7.88779C23.5372 8.48449 22.5346 8.95625 21.4293 9.32468C19.2031 10.0668 16.223 10.5 13 10.5C9.77704 10.5 6.79694 10.0668 4.57071 9.32468C3.46543 8.95625 2.46277 8.48449 1.70562 7.88779C0.965379 7.30441 0.25 6.42437 0.25 5.25C0.25 4.07563 0.965379 3.19559 1.70562 2.61221C2.46277 2.01551 3.46543 1.54375 4.57071 1.17532Z" fill="#2B75B9"/>
<path fill-rule="evenodd" clip-rule="evenodd" d="M3.24949 13.9607C3.22863 13.1504 2.56527 12.5 1.75 12.5C0.921573 12.5 0.25 13.1716 0.25 14C0.25 15.1703 0.957292 16.0506 1.69731 16.637C2.4523 17.2352 3.45256 17.7075 4.55625 18.0759C6.77914 18.818 9.75985 19.25 13 19.25C16.2401 19.25 19.2209 18.818 21.4437 18.0759C22.5474 17.7075 23.5477 17.2352 24.3027 16.637C25.0427 16.0506 25.75 15.1703 25.75 14C25.75 13.1716 25.0784 12.5 24.25 12.5C23.4347 12.5 22.7714 13.1504 22.7505 13.9607C22.7309 14.0003 22.6602 14.1108 22.4395 14.2857C22.0617 14.5851 21.4213 14.9207 20.4938 15.2303C18.6541 15.8445 16.0099 16.25 13 16.25C9.99015 16.25 7.34586 15.8445 5.50625 15.2303C4.57869 14.9207 3.93832 14.5851 3.5605 14.2857C3.33983 14.1108 3.2691 14.0003 3.24949 13.9607ZM22.7571 13.9441C22.7573 13.9441 22.7567 13.9465 22.7548 13.9513C22.7559 13.9465 22.7569 13.9441 22.7571 13.9441ZM3.24524 13.9513C3.24325 13.9465 3.24266 13.9441 3.24286 13.9441C3.24306 13.9441 3.24405 13.9465 3.24524 13.9513Z" fill="#2B75B9"/>
<path fill-rule="evenodd" clip-rule="evenodd" d="M1.75 3.75C2.57843 3.75 3.25 4.42157 3.25 5.25V22.7117C3.2703 22.7522 3.34169 22.8623 3.5605 23.0357C3.93832 23.3351 4.57869 23.6707 5.50625 23.9803C7.34586 24.5945 9.99015 25 13 25C16.0099 25 18.6541 24.5945 20.4938 23.9803C21.4213 23.6707 22.0617 23.3351 22.4395 23.0357C22.6583 22.8623 22.7297 22.7522 22.75 22.7117V5.25C22.75 4.42157 23.4216 3.75 24.25 3.75C25.0784 3.75 25.75 4.42157 25.75 5.25V22.75C25.75 23.9203 25.0427 24.8006 24.3027 25.387C23.5477 25.9852 22.5474 26.4575 21.4437 26.8259C19.2209 27.568 16.2401 28 13 28C9.75985 28 6.77914 27.568 4.55625 26.8259C3.45256 26.4575 2.4523 25.9852 1.69731 25.387C0.957292 24.8006 0.25 23.9203 0.25 22.75V5.25C0.25 4.42157 0.921573 3.75 1.75 3.75ZM22.7571 22.6941C22.7573 22.6941 22.7567 22.6965 22.7548 22.7013C22.7559 22.6965 22.7569 22.6941 22.7571 22.6941ZM3.24286 22.6941C3.24306 22.6941 3.24405 22.6965 3.24524 22.7013C3.24325 22.6965 3.24266 22.6941 3.24286 22.6941Z" fill="#2B75B9"/>
</svg>
