<svg width="24" height="25" viewBox="0 0 24 25" fill="none" xmlns="http://www.w3.org/2000/svg">
<path fill-rule="evenodd" clip-rule="evenodd" d="M22 14.25V20.5C22 21.4946 21.6049 22.4484 20.9017 23.1517C20.1984 23.8549 19.2446 24.25 18.25 24.25H13.25V14.25H22ZM10.75 14.25V24.25H5.75C4.75544 24.25 3.80161 23.8549 3.09835 23.1517C2.39509 22.4484 2 21.4946 2 20.5V14.25H10.75ZM8.25 0.500004C8.95949 0.499162 9.66098 0.649699 10.3077 0.941562C10.9543 1.23343 11.5313 1.6599 12 2.1925C12.4687 1.6599 13.0457 1.23343 13.6924 0.941562C14.339 0.649699 15.0405 0.499162 15.75 0.500004H16.375C16.8723 0.500004 17.3492 0.697548 17.7008 1.04918C18.0525 1.40081 18.25 1.87772 18.25 2.375V3C18.25 3.91125 18.0063 4.765 17.5813 5.5H20.75C21.413 5.5 22.0489 5.7634 22.5178 6.23224C22.9866 6.70108 23.25 7.33696 23.25 8V10.5C23.25 10.955 23.1288 11.3825 22.915 11.75H13.25V8C13.25 7.66848 13.1183 7.35054 12.8839 7.11612C12.6495 6.8817 12.3315 6.75 12 6.75C11.6685 6.75 11.3505 6.8817 11.1161 7.11612C10.8817 7.35054 10.75 7.66848 10.75 8V11.75H1.085C0.865008 11.3702 0.74943 10.9389 0.750002 10.5V8C0.750002 7.33696 1.01339 6.70108 1.48224 6.23224C1.95108 5.7634 2.58696 5.5 3.25 5.5H6.41875C5.97931 4.74021 5.7486 3.87772 5.75 3V2.375C5.75 1.87772 5.94755 1.40081 6.29918 1.04918C6.65081 0.697548 7.12772 0.500004 7.625 0.500004H8.25ZM8.25 3C8.25 3.66304 8.51339 4.29893 8.98224 4.76777C9.45108 5.23661 10.087 5.5 10.75 5.5C10.75 4.83696 10.4866 4.20108 10.0178 3.73224C9.54893 3.2634 8.91304 3 8.25 3ZM15.75 3C15.087 3 14.4511 3.2634 13.9822 3.73224C13.5134 4.20108 13.25 4.83696 13.25 5.5C13.913 5.5 14.5489 5.23661 15.0178 4.76777C15.4866 4.29893 15.75 3.66304 15.75 3Z" fill="#2B75B9"/>
</svg>
