<svg width="26" height="26" viewBox="0 0 26 26" fill="none" xmlns="http://www.w3.org/2000/svg">
<path fill-rule="evenodd" clip-rule="evenodd" d="M11.75 2.75C6.77944 2.75 2.75 6.77944 2.75 11.75C2.75 16.7206 6.77944 20.75 11.75 20.75C16.7206 20.75 20.75 16.7206 20.75 11.75C20.75 6.77944 16.7206 2.75 11.75 2.75ZM0.75 11.75C0.75 5.67487 5.67487 0.75 11.75 0.75C17.8251 0.75 22.75 5.67487 22.75 11.75C22.75 17.8251 17.8251 22.75 11.75 22.75C5.67487 22.75 0.75 17.8251 0.75 11.75Z" fill="#2B75B9"/>
<path fill-rule="evenodd" clip-rule="evenodd" d="M18.1054 18.1054C18.4959 17.7149 19.1291 17.7149 19.5196 18.1054L24.9571 23.5429C25.3476 23.9334 25.3476 24.5666 24.9571 24.9571C24.5666 25.3476 23.9334 25.3476 23.5429 24.9571L18.1054 19.5196C17.7149 19.1291 17.7149 18.4959 18.1054 18.1054Z" fill="#2B75B9"/>
</svg>
