<svg width="26" height="26" viewBox="0 0 26 26" fill="none" xmlns="http://www.w3.org/2000/svg">
<path fill-rule="evenodd" clip-rule="evenodd" d="M4.25 3.25C3.98478 3.25 3.73043 3.35536 3.54289 3.54289C3.35536 3.73043 3.25 3.98478 3.25 4.25V21.75C3.25 22.0152 3.35536 22.2696 3.54289 22.4571C3.73043 22.6446 3.98478 22.75 4.25 22.75H9.25C10.0784 22.75 10.75 23.4216 10.75 24.25C10.75 25.0784 10.0784 25.75 9.25 25.75H4.25C3.18913 25.75 2.17172 25.3286 1.42157 24.5784C0.671427 23.8283 0.25 22.8109 0.25 21.75V4.25C0.25 3.18913 0.671427 2.17172 1.42157 1.42157C2.17172 0.671427 3.18913 0.25 4.25 0.25H9.25C10.0784 0.25 10.75 0.921573 10.75 1.75C10.75 2.57843 10.0784 3.25 9.25 3.25H4.25Z" fill="#2B75B9"/>
<path fill-rule="evenodd" clip-rule="evenodd" d="M16.9393 5.68934C17.5251 5.10355 18.4749 5.10355 19.0607 5.68934L25.3107 11.9393C25.8964 12.5251 25.8964 13.4749 25.3107 14.0607L19.0607 20.3107C18.4749 20.8964 17.5251 20.8964 16.9393 20.3107C16.3536 19.7249 16.3536 18.7751 16.9393 18.1893L22.1287 13L16.9393 7.81066C16.3536 7.22487 16.3536 6.27513 16.9393 5.68934Z" fill="#2B75B9"/>
<path fill-rule="evenodd" clip-rule="evenodd" d="M7.75 13C7.75 12.1716 8.42157 11.5 9.25 11.5H24.25C25.0784 11.5 25.75 12.1716 25.75 13C25.75 13.8284 25.0784 14.5 24.25 14.5H9.25C8.42157 14.5 7.75 13.8284 7.75 13Z" fill="#2B75B9"/>
</svg>
