<svg width="40" height="40" viewBox="0 0 40 40" fill="none" xmlns="http://www.w3.org/2000/svg">
<path d="M20.0054 -0.00366211C8.94269 -0.00366211 -0.0255127 8.96454 -0.0255127 20.0273C-0.0255127 31.09 8.94269 40.0581 20.0054 40.0581C31.0682 40.0581 40.0363 31.09 40.0363 20.0273C40.0363 8.96454 31.0682 -0.00366211 20.0054 -0.00366211ZM36.4583 17.5V17.505C34.9464 18.4464 33.2931 19.1392 31.5617 19.5567C31.2027 14.2181 29.438 9.06962 26.4467 4.63329C31.7934 6.89048 35.5843 11.7625 36.4583 17.5ZM20 3.33337C20.4216 3.33337 20.8333 3.36501 21.2483 3.39673C25.4064 7.96267 27.8766 13.8141 28.2483 19.9784C25.9707 20.0563 23.7015 19.6649 21.5817 18.8284C21.2499 13.1927 18.5578 7.95806 14.1667 4.41001C16.0303 3.70243 18.0065 3.33767 20 3.33337ZM10.8116 6.10837C12.3773 7.12938 13.7603 8.40602 14.9032 9.88501C9.90746 13.2351 6.01691 17.991 3.72332 23.5517C2.23964 16.8299 5.0598 9.88993 10.8116 6.10837ZM5.59332 28.3417C7.25707 21.9777 11.1786 16.436 16.6267 12.75C17.6132 14.7768 18.1763 16.9834 18.2817 19.235C13.7332 22.6914 10.8746 27.9235 10.4233 33.6184C8.45238 32.2275 6.8048 30.4277 5.59332 28.3417ZM20 36.6666C17.8437 36.666 15.7082 36.2449 13.7133 35.4267C13.6766 33.2767 14.0569 31.1402 14.8333 29.135C20.3115 31.5669 26.3952 32.2923 32.2917 31.2167C29.146 34.6851 24.6823 36.6643 20 36.6666ZM16.3333 26.15C17.3898 24.5126 18.7263 23.074 20.2817 21.9C22.6376 22.8527 25.1538 23.3465 27.695 23.355C30.7868 23.3547 33.8368 22.6418 36.6084 21.2717C36.4522 23.3087 35.9193 25.2991 35.0368 27.1416C28.8825 29.0451 22.2516 28.6935 16.3333 26.15Z" fill="#272727"/>
</svg>
