<svg width="20" height="20" viewBox="0 0 20 20" fill="none" xmlns="http://www.w3.org/2000/svg">
<path d="M15.3279 19.6859C15.1746 19.6865 15.0234 19.6488 14.887 19.5759L9.99952 16.9059L5.11202 19.5759C4.95331 19.663 4.77438 19.7018 4.59555 19.6881C4.41673 19.6743 4.24519 19.6085 4.10043 19.4981C3.95568 19.3876 3.84351 19.2371 3.77669 19.0634C3.70987 18.8898 3.69107 18.7001 3.72244 18.5159L4.68077 12.8859L0.732437 8.88587C0.609251 8.7576 0.521864 8.59674 0.479656 8.42057C0.437447 8.24439 0.44201 8.05955 0.492854 7.88587C0.548399 7.70815 0.650573 7.55023 0.787781 7.43003C0.92499 7.30984 1.09174 7.23218 1.2691 7.20587L6.7316 6.37587L9.13702 1.24587C9.21549 1.0768 9.33802 0.934215 9.49056 0.834446C9.6431 0.734678 9.81949 0.681763 9.99952 0.681763C10.1795 0.681763 10.3559 0.734678 10.5085 0.834446C10.661 0.934215 10.7835 1.0768 10.862 1.24587L13.2962 6.36587L18.7587 7.19587C18.9361 7.22218 19.1028 7.29984 19.24 7.42003C19.3772 7.54023 19.4794 7.69815 19.5349 7.87587C19.5858 8.04955 19.5903 8.23439 19.5481 8.41057C19.5059 8.58674 19.4185 8.7476 19.2954 8.87587L15.347 12.8759L16.3054 18.5059C16.3396 18.6934 16.3217 18.8871 16.2537 19.0643C16.1858 19.2415 16.0707 19.3947 15.922 19.5059C15.7485 19.6328 15.5395 19.6961 15.3279 19.6859Z" fill="#E1C31F"/>
</svg>
