<svg width="42" height="36" viewBox="0 0 42 36" fill="none" xmlns="http://www.w3.org/2000/svg">
<path d="M20.9577 0.522407C20.3607 0.196795 19.6392 0.196796 19.0423 0.522407L1.22027 10.2435C-0.169731 11.0017 -0.169381 12.9977 1.22089 13.7554L5.99998 16.36V27.173C5.99998 27.9048 6.3996 28.5781 7.04193 28.9286L19.0419 35.4772C19.6391 35.8031 20.3609 35.8031 20.958 35.4772L32.958 28.9286C33.6004 28.5781 34 27.9048 34 27.173V16.36L38 14.18V26C38 27.1046 38.8954 28 40 28C41.1045 28 42 27.1046 42 26V13.1873C42 12.4554 41.6002 11.782 40.9577 11.4315L20.9577 0.522407ZM33.64 12L20 19.44L6.35998 12L20 4.56002L33.64 12ZM30 25.98L20 31.44L9.99998 25.98V18.54L20 24L30 18.54V25.98Z" fill="#272727"/>
</svg>
