<svg width="28" height="30" viewBox="0 0 28 30" fill="none" xmlns="http://www.w3.org/2000/svg">
<path fill-rule="evenodd" clip-rule="evenodd" d="M2.91226 19.4955C4.35004 18.0577 6.30009 17.25 8.33342 17.25H19.6668C21.7001 17.25 23.6501 18.0577 25.0879 19.4955C26.5257 20.9333 27.3334 22.8833 27.3334 24.9167V27.75C27.3334 28.8546 26.438 29.75 25.3334 29.75C24.2289 29.75 23.3334 28.8546 23.3334 27.75V24.9167C23.3334 23.9442 22.9471 23.0116 22.2595 22.3239C21.5718 21.6363 20.6392 21.25 19.6668 21.25H8.33342C7.36096 21.25 6.42832 21.6363 5.74069 22.3239C5.05306 23.0116 4.66675 23.9442 4.66675 24.9167V27.75C4.66675 28.8546 3.77132 29.75 2.66675 29.75C1.56218 29.75 0.666748 28.8546 0.666748 27.75V24.9167C0.666748 22.8833 1.47448 20.9333 2.91226 19.4955Z" fill="#2B75B9"/>
<path fill-rule="evenodd" clip-rule="evenodd" d="M13.9999 4.25C11.9749 4.25 10.3333 5.89162 10.3333 7.91667C10.3333 9.94171 11.9749 11.5833 13.9999 11.5833C16.025 11.5833 17.6666 9.94171 17.6666 7.91667C17.6666 5.89162 16.025 4.25 13.9999 4.25ZM6.33325 7.91667C6.33325 3.68248 9.76574 0.25 13.9999 0.25C18.2341 0.25 21.6666 3.68248 21.6666 7.91667C21.6666 12.1509 18.2341 15.5833 13.9999 15.5833C9.76574 15.5833 6.33325 12.1509 6.33325 7.91667Z" fill="#2B75B9"/>
</svg>
