<svg width="34" height="31" viewBox="0 0 34 31" fill="none" xmlns="http://www.w3.org/2000/svg">
<path d="M28.9062 27.75C28.9062 28.2074 28.7706 28.6545 28.5165 29.0348C28.2624 29.415 27.9013 29.7114 27.4787 29.8865C27.0562 30.0615 26.5912 30.1073 26.1426 30.0181C25.694 29.9288 25.282 29.7086 24.9586 29.3852C24.6352 29.0618 24.4149 28.6497 24.3257 28.2011C24.2365 27.7526 24.2823 27.2876 24.4573 26.865C24.6323 26.4425 24.9287 26.0813 25.309 25.8272C25.6893 25.5731 26.1364 25.4375 26.5938 25.4375C27.2071 25.4375 27.7953 25.6811 28.2289 26.1148C28.6626 26.5485 28.9062 27.1367 28.9062 27.75ZM11.5625 25.4375C11.1051 25.4375 10.658 25.5731 10.2777 25.8272C9.89746 26.0813 9.60106 26.4425 9.42603 26.865C9.251 27.2876 9.2052 27.7526 9.29443 28.2011C9.38366 28.6497 9.60391 29.0618 9.92732 29.3852C10.2507 29.7086 10.6628 29.9288 11.1114 30.0181C11.5599 30.1073 12.0249 30.0615 12.4475 29.8865C12.87 29.7114 13.2312 29.415 13.4853 29.0348C13.7394 28.6545 13.875 28.2074 13.875 27.75C13.875 27.1367 13.6314 26.5485 13.1977 26.1148C12.764 25.6811 12.1758 25.4375 11.5625 25.4375ZM32.9676 6.24375C32.8591 6.10097 32.7193 5.98501 32.5589 5.90482C32.3985 5.82463 32.2219 5.78236 32.0426 5.78125H6.98086L5.81016 1.67656C5.66978 1.19433 5.37714 0.770458 4.97597 0.468276C4.5748 0.166093 4.08662 0.00182063 3.58437 0H1.15625C0.849593 0 0.555497 0.121819 0.338658 0.338658C0.121819 0.555497 0 0.849593 0 1.15625C0 1.46291 0.121819 1.757 0.338658 1.97384C0.555497 2.19068 0.849593 2.3125 1.15625 2.3125H3.58437L5.00078 7.24102V7.26992L8.81641 20.6102C9.02593 21.3341 9.46461 21.9706 10.0666 22.424C10.6686 22.8775 11.4014 23.1234 12.1551 23.125H26.0012C26.7548 23.1234 27.4877 22.8775 28.0896 22.424C28.6916 21.9706 29.1303 21.3341 29.3398 20.6102L33.1555 7.25547C33.2044 7.08377 33.2129 6.90308 33.1803 6.72756C33.1477 6.55203 33.0749 6.38644 32.9676 6.24375Z" fill="white"/>
</svg>
