<svg width="40" height="40" viewBox="0 0 40 40" fill="none" xmlns="http://www.w3.org/2000/svg">
<path d="M24.1667 21.6667C23.6722 21.6667 23.1888 21.5201 22.7777 21.2454C22.3666 20.9707 22.0462 20.5802 21.857 20.1234C21.6677 19.6666 21.6182 19.1639 21.7147 18.679C21.8111 18.194 22.0493 17.7486 22.3989 17.3989C22.7485 17.0493 23.194 16.8112 23.6789 16.7147C24.1639 16.6183 24.6665 16.6678 25.1234 16.857C25.5802 17.0462 25.9706 17.3667 26.2453 17.7778C26.52 18.1889 26.6667 18.6723 26.6667 19.1667C26.6667 19.8298 26.4033 20.4656 25.9344 20.9345C25.4656 21.4033 24.8297 21.6667 24.1667 21.6667ZM39.875 30.24C40.083 31.4371 40.0267 32.6651 39.7102 33.8381C39.3936 35.011 38.8244 36.1006 38.0424 37.0305C37.2604 37.9603 36.2845 38.7079 35.1831 39.2208C34.0818 39.7338 32.8816 39.9998 31.6667 40H25C24.558 40 24.134 39.8245 23.8215 39.5119C23.5089 39.1993 23.3333 38.7754 23.3333 38.3334V34.5617C22.2453 34.8486 21.1252 34.9959 20 35C18.8741 34.9943 17.7537 34.843 16.6667 34.55V38.3334C16.6667 38.7754 16.4911 39.1993 16.1785 39.5119C15.8659 39.8245 15.442 40 15 40H8.33332C7.11837 39.9998 5.91817 39.7338 4.81682 39.2208C3.71547 38.7079 2.73961 37.9603 1.95761 37.0305C1.17561 36.1006 0.606381 35.011 0.289811 33.8381C-0.0267594 32.6651 -0.0830155 31.4371 0.124984 30.24L0.624984 27.34C0.791248 26.3755 1.24264 25.4829 1.92096 24.7774C2.59927 24.0718 3.4734 23.5856 4.43062 23.3815C5.38785 23.1774 6.38427 23.2647 7.29139 23.6322C8.19852 23.9997 8.97475 24.6306 9.51998 25.4434C11.6267 28.54 15.6817 31.6667 20 31.6667C25.2167 31.6667 30.3566 27.035 31.8833 22.7067C32.0058 22.3814 32.2242 22.1009 32.5097 21.9024C32.7951 21.7039 33.134 21.5967 33.4817 21.595L34.2017 21.6067C34.5244 21.6107 34.8446 21.5505 35.1439 21.4296C35.4431 21.3087 35.7153 21.1295 35.9447 20.9025C36.174 20.6754 36.356 20.405 36.4799 20.1071C36.6039 19.8091 36.6673 19.4894 36.6667 19.1667C36.6661 18.5822 36.4607 18.0163 36.0861 17.5675C35.7116 17.1187 35.1917 16.8153 34.6167 16.71C34.262 16.6457 33.9378 16.4682 33.6926 16.2041C33.4474 15.9399 33.2945 15.6034 33.2567 15.245C32.9141 11.9705 31.3687 8.93959 28.9197 6.73907C26.4707 4.53856 23.2924 3.325 20 3.33338C10.705 3.33338 8.15332 9.38005 6.10332 14.24C5.72998 15.1184 5.37832 15.9567 4.99998 16.7117C8.35129 16.5345 11.6191 15.6017 14.559 13.9831C17.4989 12.3646 20.0347 10.1021 21.9767 7.36505C22.1038 7.18689 22.2648 7.03552 22.4505 6.91958C22.6361 6.80365 22.8428 6.72542 23.0587 6.68936C23.2746 6.6533 23.4955 6.66011 23.7088 6.70942C23.922 6.75872 24.1235 6.84955 24.3017 6.97671C24.4798 7.10388 24.6312 7.26489 24.7471 7.45055C24.863 7.63621 24.9413 7.84289 24.9773 8.05879C25.0134 8.27468 25.0066 8.49557 24.9573 8.70883C24.908 8.92209 24.8171 9.12355 24.69 9.30171C22.5267 12.3686 19.7044 14.9125 16.43 16.7467C16.9291 16.8693 17.3783 17.1427 17.7165 17.5297C18.0547 17.9167 18.2653 18.3985 18.3198 18.9096C18.3743 19.4207 18.2699 19.9361 18.021 20.3857C17.772 20.8353 17.3905 21.1973 16.9284 21.4223C16.4663 21.6473 15.9461 21.7244 15.4387 21.6432C14.9312 21.5619 14.4611 21.3262 14.0923 20.9682C13.7236 20.6102 13.4742 20.1472 13.378 19.6423C13.2819 19.1374 13.3437 18.6152 13.555 18.1467C9.72301 19.6984 5.57965 20.3264 1.45998 19.98C1.1166 19.934 0.7961 19.7821 0.543046 19.5455C0.289992 19.3089 0.116968 18.9993 0.0480366 18.6598C-0.0208948 18.3202 0.017693 17.9677 0.158434 17.6511C0.299174 17.3345 0.535071 17.0697 0.833318 16.8934C1.84087 15.7502 2.59062 14.4036 3.03165 12.945C5.20665 7.79005 8.49998 4.66788e-05 20 4.66788e-05C23.9239 -0.00924911 27.7246 1.37013 30.7292 3.89398C33.7338 6.41784 35.7485 9.92339 36.4167 13.79C37.4773 14.2334 38.3832 14.9803 39.0207 15.9369C39.6583 16.8935 39.9989 18.0171 40 19.1667C39.9972 20.5517 39.4913 21.8884 38.5767 22.9284C38.5883 22.9717 38.6183 23.0067 38.6267 23.0534L39.875 30.24ZM13.3333 33.2334C10.6971 31.8207 8.4431 29.7892 6.76498 27.3134C6.62217 27.0975 6.42842 26.9201 6.20083 26.7969C5.97323 26.6737 5.7188 26.6083 5.45998 26.6067H5.43165C5.06675 26.6144 4.71585 26.7486 4.43891 26.9863C4.16197 27.224 3.97619 27.5505 3.91332 27.91L3.41332 30.8084C3.28821 31.5263 3.32156 32.263 3.51104 32.9667C3.70053 33.6704 4.04155 34.3242 4.51025 34.8823C4.97894 35.4404 5.56396 35.8892 6.22435 36.1975C6.88474 36.5057 7.60453 36.6659 8.33332 36.6667H13.3333V33.2334ZM36.5917 30.8084L35.545 24.7867C35.2281 24.8623 34.9052 24.9102 34.58 24.93C32.8985 28.4782 30.1254 31.3949 26.6667 33.2534V36.6667H31.6667C32.3957 36.6666 33.1159 36.507 33.7767 36.1992C34.4376 35.8913 35.0232 35.4427 35.4924 34.8847C35.9616 34.3268 36.3031 33.6729 36.493 32.9691C36.6829 32.2652 36.7166 31.5266 36.5917 30.8084Z" fill="white"/>
</svg>
