<svg width="165" height="40" viewBox="0 0 165 40" fill="none" xmlns="http://www.w3.org/2000/svg">
<g clip-path="url(#clip0_1_1442)">
<path d="M50.0662 28.608H61.5708V25.0958H54.1551V11.8666H50.0662V28.608Z" fill="#2B75B9"/>
<path d="M68.3868 26.2665C66.7466 26.2665 65.8918 24.8148 65.8918 22.6372C65.8918 20.4597 66.7466 18.9846 68.3868 18.9846C70.027 18.9846 70.9049 20.4597 70.9049 22.6372C70.9049 24.8148 70.027 26.2665 68.3868 26.2665ZM68.4099 28.9826C72.2217 28.9826 74.7167 26.2431 74.7167 22.6372C74.7167 19.0314 72.2217 16.2919 68.4099 16.2919C64.6213 16.2919 62.0801 19.0314 62.0801 22.6372C62.0801 26.2431 64.6213 28.9826 68.4099 28.9826Z" fill="#2B75B9"/>
<path d="M81.3147 32.7525C83.0704 32.7525 84.6182 32.3544 85.6578 31.4178C86.6049 30.5515 87.2287 29.2403 87.2287 27.4373V16.6198H83.6248V17.9076H83.5786C82.8856 16.9007 81.8229 16.2686 80.252 16.2686C77.3181 16.2686 75.2852 18.7505 75.2852 22.2627C75.2852 25.9388 77.757 27.9525 80.4137 27.9525C81.846 27.9525 82.747 27.3671 83.44 26.571H83.5324V27.7651C83.5324 29.2168 82.8625 30.0598 81.2685 30.0598C80.021 30.0598 79.3972 29.5212 79.1893 28.889H75.5393C75.9089 31.3944 78.0573 32.7525 81.3147 32.7525ZM81.2916 25.1193C79.8824 25.1193 78.9583 23.9486 78.9583 22.1456C78.9583 20.3193 79.8824 19.1486 81.2916 19.1486C82.8625 19.1486 83.6941 20.5066 83.6941 22.1222C83.6941 23.8081 82.9318 25.1193 81.2916 25.1193Z" fill="#2B75B9"/>
<path d="M94.6388 26.2665C92.9986 26.2665 92.1438 24.8148 92.1438 22.6372C92.1438 20.4597 92.9986 18.9846 94.6388 18.9846C96.279 18.9846 97.1565 20.4597 97.1565 22.6372C97.1565 24.8148 96.279 26.2665 94.6388 26.2665ZM94.6619 28.9826C98.4732 28.9826 100.968 26.2431 100.968 22.6372C100.968 19.0314 98.4732 16.2919 94.6619 16.2919C90.8732 16.2919 88.332 19.0314 88.332 22.6372C88.332 26.2431 90.8732 28.9826 94.6619 28.9826Z" fill="#2B75B9"/>
<path d="M102.068 28.608H105.834V16.6197H102.068V28.608ZM102.068 14.9573H105.834V11.8666H102.068V14.9573Z" fill="#2B75B9"/>
<path d="M107.468 32.5651H111.233V27.3671H111.279C112.019 28.3739 113.104 28.9827 114.629 28.9827C117.725 28.9827 119.781 26.5007 119.781 22.6139C119.781 19.0081 117.863 16.2686 114.721 16.2686C113.104 16.2686 111.949 16.9944 111.141 18.0715H111.071V16.6198H107.468V32.5651ZM113.659 26.0325C112.042 26.0325 111.118 24.6978 111.118 22.7544C111.118 20.811 111.949 19.3359 113.589 19.3359C115.207 19.3359 115.969 20.6939 115.969 22.7544C115.969 24.7915 115.091 26.0325 113.659 26.0325Z" fill="#2B75B9"/>
<path d="M125.911 28.9827C129.007 28.9827 131.294 27.6246 131.294 25.0022C131.294 21.9349 128.845 21.3964 126.766 21.0451C125.264 20.7642 123.924 20.6471 123.924 19.8042C123.924 19.0549 124.641 18.7037 125.565 18.7037C126.604 18.7037 127.32 19.0315 127.459 20.1086H130.924C130.739 17.7437 128.938 16.2686 125.588 16.2686C122.793 16.2686 120.482 17.5798 120.482 20.1086C120.482 22.9183 122.677 23.4803 124.733 23.8315C126.304 24.1125 127.736 24.2295 127.736 25.3066C127.736 26.0793 127.02 26.5007 125.888 26.5007C124.641 26.5007 123.855 25.9154 123.717 24.7212H120.159C120.274 27.3671 122.446 28.9827 125.911 28.9827Z" fill="#2B75B9"/>
<path d="M136.409 28.9593C138.049 28.9593 139.089 28.3037 139.944 27.1329H140.013V28.608H143.617V16.6198H139.851V23.3163C139.851 24.7446 139.066 25.728 137.772 25.728C136.571 25.728 135.993 25.0022 135.993 23.691V16.6198H132.251V24.4871C132.251 27.1563 133.683 28.9593 136.409 28.9593Z" fill="#2B75B9"/>
<path d="M145.255 28.6081H149.02V21.8881C149.02 20.4598 149.713 19.4529 150.892 19.4529C152.024 19.4529 152.555 20.2022 152.555 21.49V28.6081H156.321V21.8881C156.321 20.4598 156.99 19.4529 158.192 19.4529C159.324 19.4529 159.855 20.2022 159.855 21.49V28.6081H163.621V20.811C163.621 18.1183 162.281 16.2686 159.601 16.2686C158.076 16.2686 156.806 16.9242 155.882 18.3759H155.835C155.235 17.0881 154.057 16.2686 152.509 16.2686C150.799 16.2686 149.667 17.0881 148.928 18.329H148.859V16.6198H145.255V28.6081Z" fill="#2B75B9"/>
<path fill-rule="evenodd" clip-rule="evenodd" d="M20.0572 39.3397C30.6895 39.3397 39.3085 30.6038 39.3085 19.8275C39.3085 9.05121 30.6895 0.315308 20.0572 0.315308C9.42501 0.315308 0.805908 9.05121 0.805908 19.8275C0.805908 30.6038 9.42501 39.3397 20.0572 39.3397ZM23.0286 15.391C24.6696 13.7277 24.6696 11.031 23.0286 9.36766C21.3876 7.70436 18.7269 7.70436 17.0859 9.36766C15.4449 11.031 15.4449 13.7277 17.0859 15.391L20.0572 18.4026L23.0286 15.391ZM24.4345 22.8392C26.0756 24.5025 28.7362 24.5025 30.3773 22.8392C32.0182 21.1759 32.0182 18.4792 30.3773 16.8159C28.7362 15.1526 26.0756 15.1526 24.4345 16.8159L21.4631 19.8276L24.4345 22.8392ZM23.0286 30.2874C24.6696 28.624 24.6696 25.9274 23.0286 24.264L20.0572 21.2524L17.0859 24.264C15.4449 25.9274 15.4449 28.624 17.0859 30.2874C18.7269 31.9507 21.3876 31.9507 23.0286 30.2874ZM9.73721 22.8392C8.09619 21.1759 8.09619 18.4792 9.73721 16.8159C11.3783 15.1526 14.0389 15.1526 15.68 16.8159L18.6514 19.8276L15.68 22.8392C14.0389 24.5025 11.3783 24.5025 9.73721 22.8392Z" fill="#2B75B9"/>
</g>
<defs>
<clipPath id="clip0_1_1442">
<rect width="163.636" height="40" fill="white" transform="translate(0.708252)"/>
</clipPath>
</defs>
</svg>
